<svg width="51" height="33" viewBox="0 0 51 33" fill="none" xmlns="http://www.w3.org/2000/svg">
<path d="M0 0H51V33H0V0ZM25.5 8.25C27.7543 8.25 29.9163 9.11919 31.5104 10.6664C33.1045 12.2135 34 14.312 34 16.5C34 18.688 33.1045 20.7865 31.5104 22.3336C29.9163 23.8808 27.7543 24.75 25.5 24.75C23.2457 24.75 21.0837 23.8808 19.4896 22.3336C17.8955 20.7865 17 18.688 17 16.5C17 14.312 17.8955 12.2135 19.4896 10.6664C21.0837 9.11919 23.2457 8.25 25.5 8.25ZM11.3333 5.5C11.3333 6.95869 10.7363 8.35764 9.6736 9.38909C8.6109 10.4205 7.16956 11 5.66667 11V22C7.16956 22 8.6109 22.5795 9.6736 23.6109C10.7363 24.6424 11.3333 26.0413 11.3333 27.5H39.6667C39.6667 26.0413 40.2637 24.6424 41.3264 23.6109C42.3891 22.5795 43.8304 22 45.3333 22V11C43.8304 11 42.3891 10.4205 41.3264 9.38909C40.2637 8.35764 39.6667 6.95869 39.6667 5.5H11.3333Z" fill="#24BF66"/>
</svg>
