<svg width="72" height="72" viewBox="0 0 72 72" fill="none" xmlns="http://www.w3.org/2000/svg">
<g clip-path="url(#clip0_2753_894)">
<path d="M59.9994 34H37.9994V12C37.9994 11.4696 37.7886 10.9609 37.4136 10.5858C37.0385 10.2107 36.5298 10 35.9994 10C35.4689 10 34.9602 10.2107 34.5851 10.5858C34.2101 10.9609 33.9994 11.4696 33.9994 12V34H11.9994C11.4689 34 10.9602 34.2107 10.5851 34.5858C10.2101 34.9609 9.99936 35.4696 9.99936 36C9.98949 36.2599 10.0355 36.519 10.1341 36.7596C10.2328 37.0003 10.382 37.217 10.5715 37.3952C10.761 37.5733 10.9866 37.7088 11.2329 37.7924C11.4792 37.876 11.7405 37.9059 11.9994 37.88H33.9994V60C33.9994 60.5304 34.2101 61.0391 34.5851 61.4142C34.9602 61.7893 35.4689 62 35.9994 62C36.5298 62 37.0385 61.7893 37.4136 61.4142C37.7886 61.0391 37.9994 60.5304 37.9994 60V38H59.9994C60.5298 38 61.0385 37.7893 61.4136 37.4142C61.7886 37.0391 61.9994 36.5304 61.9994 36C61.9994 35.4696 61.7886 34.9609 61.4136 34.5858C61.0385 34.2107 60.5298 34 59.9994 34Z" fill="#7A7A7A"/>
</g>
<defs>
<clipPath id="clip0_2753_894">
<rect width="72" height="72" fill="white"/>
</clipPath>
</defs>
</svg>
