<svg width="37" height="37" viewBox="0 0 37 37" fill="none" xmlns="http://www.w3.org/2000/svg">
<path d="M18.4648 35.8086C28.0435 35.8086 35.8086 28.0435 35.8086 18.4648C35.8086 8.88616 28.0435 1.12109 18.4648 1.12109C8.88616 1.12109 1.12109 8.88616 1.12109 18.4648C1.12109 28.0435 8.88616 35.8086 18.4648 35.8086Z" fill="#E9E7F7"/>
<path d="M14.0158 26.9091C13.5533 26.9091 13.1575 26.742 12.8284 26.4077C12.4988 26.0728 12.334 25.6704 12.334 25.2006V16.658C12.334 16.1882 12.4988 15.7858 12.8284 15.451C13.1575 15.1167 13.5533 14.9495 14.0158 14.9495H14.8567V13.241C14.8567 12.0593 15.2668 11.0518 16.087 10.2186C16.9066 9.38603 17.898 8.96973 19.0613 8.96973C20.2245 8.96973 21.2162 9.38603 22.0364 10.2186C22.856 11.0518 23.2658 12.0593 23.2658 13.241V14.9495H24.1067C24.5692 14.9495 24.9653 15.1167 25.2949 15.451C25.624 15.7858 25.7885 16.1882 25.7885 16.658V25.2006C25.7885 25.6704 25.624 26.0728 25.2949 26.4077C24.9653 26.742 24.5692 26.9091 24.1067 26.9091H14.0158ZM19.0613 22.6378C19.5238 22.6378 19.9198 22.4707 20.2495 22.1364C20.5785 21.8015 20.7431 21.3992 20.7431 20.9293C20.7431 20.4595 20.5785 20.0571 20.2495 19.7223C19.9198 19.388 19.5238 19.2208 19.0613 19.2208C18.5988 19.2208 18.203 19.388 17.8739 19.7223C17.5443 20.0571 17.3794 20.4595 17.3794 20.9293C17.3794 21.3992 17.5443 21.8015 17.8739 22.1364C18.203 22.4707 18.5988 22.6378 19.0613 22.6378ZM16.5385 14.9495H21.584V13.241C21.584 12.5291 21.3387 11.924 20.8482 11.4257C20.3577 10.9274 19.762 10.6782 19.0613 10.6782C18.3605 10.6782 17.7649 10.9274 17.2743 11.4257C16.7838 11.924 16.5385 12.5291 16.5385 13.241V14.9495Z" fill="#5A48C8"/>
</svg>
