<svg width="37" height="37" viewBox="0 0 37 37" fill="none" xmlns="http://www.w3.org/2000/svg">
<g clip-path="url(#clip0_815_249)">
<path d="M18.4648 35.8086C28.0435 35.8086 35.8086 28.0435 35.8086 18.4648C35.8086 8.88616 28.0435 1.12109 18.4648 1.12109C8.88616 1.12109 1.12109 8.88616 1.12109 18.4648C1.12109 28.0435 8.88616 35.8086 18.4648 35.8086Z" fill="#E9E7F7"/>
<path d="M19.5 33.9688C28.0432 33.9688 34.9688 27.0432 34.9688 18.5C34.9688 9.95685 28.0432 3.03125 19.5 3.03125C10.9568 3.03125 4.03125 9.95685 4.03125 18.5C4.03125 27.0432 10.9568 33.9688 19.5 33.9688Z" fill="#4BD37B"/>
<path d="M26.7188 9.21875L15.8906 20.3562L12.2812 16.6437L8.67188 20.3562L15.8906 27.7812L30.3281 12.9313L26.7188 9.21875Z" fill="white"/>
</g>
<defs>
<clipPath id="clip0_815_249">
<rect width="37" height="37" fill="white"/>
</clipPath>
</defs>
</svg>
