<svg width="67" height="67" viewBox="0 0 67 67" fill="none" xmlns="http://www.w3.org/2000/svg">
<circle cx="33.5" cy="33.5" r="33.5" fill="#FEA218"/>
<path d="M23.4835 47.4447C22.7675 47.1229 23.2764 46.7273 23.9587 46.4255C23.5097 46.5505 23.0609 46.7117 22.6656 46.8917M23.4835 47.4447L22.6656 46.8917M23.4835 47.4447C26.7246 48.8938 38.1064 48.6086 42.4224 47.5246L23.4835 47.4447ZM22.6656 46.8917C22.5832 46.9291 22.5032 46.9674 22.4259 47.0064C22.0998 47.1709 21.8449 47.3365 21.6783 47.4866C21.5731 47.5814 21.5296 47.6456 21.5119 47.678C21.5316 47.6965 21.5675 47.7242 21.6307 47.7596C21.8291 47.8709 22.193 47.9924 22.7971 48.0897L22.8004 48.0902C23.5679 48.2191 24.3276 48.3298 25.0772 48.4238C24.3653 48.2845 23.7516 48.1122 23.2794 47.9011L23.2785 47.9007C23.0935 47.8176 22.9035 47.7008 22.7767 47.5227C22.6395 47.33 22.6045 47.1042 22.6656 46.8917ZM36.866 25.5441C36.8503 25.5579 36.8346 25.5716 36.8191 25.5854C35.9025 26.3969 35.3542 27.1293 35.1344 27.8574C34.9067 28.6115 35.0534 29.2838 35.3545 29.9095C35.596 30.4114 35.9575 30.9214 36.323 31.4371C36.3936 31.5367 36.4643 31.6365 36.5344 31.7365C36.9458 32.3314 37.0149 32.8568 36.9243 33.3167C36.837 33.7596 36.5927 34.1837 36.2668 34.5703C36.2809 34.4198 36.2827 34.2635 36.2689 34.1023C36.2218 33.552 35.9958 32.9818 35.5224 32.424C34.1969 30.8556 33.9621 29.5914 34.2173 28.5837C34.481 27.5424 35.3002 26.637 36.3667 25.878C36.5294 25.7622 36.6964 25.6509 36.866 25.5441ZM25.7536 36.4982C25.7138 36.5767 25.6829 36.6687 25.6743 36.7732C25.6362 37.235 26.0208 37.4765 26.2602 37.5827C26.3015 37.601 26.3455 37.6187 26.3921 37.6356C25.5599 37.5278 24.9077 37.3879 24.4993 37.2275C24.4347 37.2021 24.3811 37.1781 24.3372 37.156C24.3925 37.1196 24.465 37.0774 24.5587 37.0304L24.5587 37.0304L24.5632 37.0281C24.9511 36.8284 25.3485 36.6516 25.7536 36.4982ZM24.1811 37.0549C24.1812 37.0549 24.1817 37.0555 24.1827 37.0566C24.1816 37.0555 24.1811 37.0549 24.1811 37.0549ZM38.2124 40.8827C34.6262 41.7613 31.0055 41.7539 28.7968 41.3156C28.1876 41.1948 27.7082 41.0453 27.3747 40.8855C27.0433 40.7268 26.9464 40.6014 26.9265 40.5637C26.9365 40.5408 26.9722 40.4806 27.079 40.3909C27.1438 40.3365 27.2258 40.2786 27.327 40.2178C27.3281 40.2218 27.3293 40.2258 27.3305 40.2298C27.3881 40.4212 27.5077 40.5788 27.6642 40.7005C27.9543 40.9262 28.397 41.05 28.9757 41.1096C31.9768 41.4735 35.0263 41.3311 37.9811 40.6992C38.0561 40.7615 38.1332 40.8229 38.2124 40.8827ZM29.9947 27.4146L29.9959 27.4127C30.5357 26.5772 31.3278 25.8309 32.2325 25.0747C32.5209 24.8338 32.8238 24.5895 33.1315 24.3413C33.7662 23.8294 34.4214 23.301 35.0116 22.7511C35.8503 21.9695 36.6145 21.0961 37.102 20.0523C36.6723 21.3403 35.6069 22.9663 33.2767 24.8615C31.8571 26.0127 31.0168 27.0791 30.6153 28.1062C30.2072 29.1501 30.2709 30.1058 30.5654 30.9836C30.6489 31.2322 30.7511 31.4752 30.8659 31.7125C30.6093 31.3801 30.3843 31.0545 30.196 30.7349C29.8231 30.1019 29.6122 29.5213 29.5717 28.9824C29.532 28.4545 29.6532 27.9381 29.9947 27.4146ZM37.6345 44.7418C34.7128 45.7198 31.6064 45.6288 29.6577 45.1193C29.1129 44.9769 28.679 44.8069 28.3738 44.6319C28.0492 44.4459 27.949 44.3 27.9304 44.2463C27.9272 44.2371 27.9276 44.2364 27.9285 44.2348C27.9287 44.2344 27.9289 44.234 27.9291 44.2334C27.9332 44.2219 27.9542 44.1757 28.0382 44.103C28.0985 44.0508 28.1802 43.9944 28.2868 43.9355C28.2878 43.9372 28.2887 43.9388 28.2896 43.9405C28.3798 44.1009 28.5177 44.2165 28.6635 44.3012C28.9443 44.4643 29.3621 44.5746 29.935 44.6469C32.2759 44.9782 34.6501 44.8854 36.961 44.3686C37.1818 44.4999 37.4065 44.6243 37.6345 44.7418ZM21.4901 47.6511C21.4907 47.651 21.4929 47.6539 21.4951 47.66C21.4906 47.6542 21.4895 47.6511 21.4901 47.6511ZM44.6931 39.271C44.5589 39.406 44.4075 39.5409 44.2376 39.6746C45.0068 38.7416 45.2703 37.8323 45.1368 37.0093C45.0565 36.514 44.8351 36.0873 44.5288 35.7474C45.1008 36.0671 45.4776 36.5953 45.561 37.168C45.6479 37.7652 45.4461 38.5133 44.6931 39.271Z" fill="white" stroke="white"/>
</svg>
