<svg width="67" height="67" viewBox="0 0 67 67" fill="none" xmlns="http://www.w3.org/2000/svg">
<circle cx="33.5" cy="33.5" r="33.5" fill="black" fill-opacity="0.78"/>
<path d="M30.3688 40.5375H29.8688V41.0375C29.8688 41.4768 30.0361 41.9722 30.2888 42.3596C30.5297 42.729 30.9489 43.1455 31.521 43.1455H37.9829V45.4595C37.9829 46.6024 37.5429 47.6955 36.7644 48.499C35.9865 49.3019 34.9348 49.75 33.8417 49.75H26.896C25.8029 49.75 24.7512 49.3019 23.9732 48.499C23.1948 47.6955 22.7547 46.6024 22.7547 45.4595V39.1783C22.7547 36.7952 24.6206 34.9045 26.896 34.9045H35.4158C38.273 34.9045 40.5408 32.5193 40.5408 29.614V25.625H41.9557C43.0489 25.625 44.1006 26.0731 44.8785 26.876C45.657 27.6795 46.097 28.7726 46.097 29.9155V36.247C46.097 37.3899 45.657 38.483 44.8785 39.2865C44.1006 40.0894 43.0489 40.5375 41.9557 40.5375H30.3688ZM30.3688 26.4625H30.8688V25.9625C30.8688 25.5232 30.7015 25.0278 30.4488 24.6404C30.2079 24.271 29.7887 23.8545 29.2166 23.8545H22.7547V21.5405C22.7547 19.1551 24.6229 17.25 26.896 17.25H33.8417C36.1148 17.25 37.9829 19.1551 37.9829 21.5405V27.8217C37.9829 30.2048 36.117 32.0955 33.8417 32.0955H25.3219C22.4646 32.0955 20.1968 34.4807 20.1968 37.386V41.375H18.7819C16.5088 41.375 14.6406 39.4699 14.6406 37.0845V30.753C14.6406 28.3676 16.5088 26.4625 18.7819 26.4625H30.3688ZM35.0101 44.3733C34.5488 44.3733 34.1133 44.5559 33.8009 44.9249C33.494 45.2873 33.3417 45.7855 33.3417 46.364C33.3417 46.9401 33.4948 47.4105 33.8645 47.7151C34.2137 48.0027 34.654 48.0533 35.0101 48.0533C35.2293 48.0533 35.4459 48.0087 35.6476 47.9225C35.8491 47.8363 36.0312 47.7104 36.1839 47.5528C36.3366 47.3953 36.4568 47.2091 36.5386 47.0053C36.6204 46.8016 36.6623 46.5837 36.6623 46.364C36.6623 45.7854 36.5099 45.2884 36.2066 44.9268C35.898 44.5587 35.4669 44.3733 35.0101 44.3733ZM25.7276 22.6268C26.1888 22.6268 26.6243 22.4441 26.9368 22.0751C27.2436 21.7127 27.396 21.2145 27.396 20.636C27.396 20.0599 27.2429 19.5895 26.8731 19.2849C26.524 18.9973 26.0836 18.9468 25.7276 18.9468C25.3774 18.9468 24.9411 18.998 24.5944 19.2864C24.2284 19.5908 24.0754 20.0599 24.0754 20.636C24.0754 21.2146 24.2277 21.7116 24.531 22.0732C24.8396 22.4413 25.2707 22.6268 25.7276 22.6268Z" fill="#1B87C4" stroke="white"/>
</svg>
