<svg width="51" height="51" viewBox="0 0 51 51" fill="none" xmlns="http://www.w3.org/2000/svg">
<circle cx="25.5" cy="25.4995" r="25.5" fill="#E2B100"/>
<path d="M27 19.9994H25V25.9994H17C16.4696 25.9994 15.9609 25.7887 15.5858 25.4136C15.2107 25.0386 15 24.5299 15 23.9994V21.9994C15 21.469 15.2107 20.9603 15.5858 20.5852C15.9609 20.2101 16.4696 19.9994 17 19.9994H19.536C19.0399 19.1403 18.8807 18.1275 19.0894 17.1576C19.2981 16.1877 19.8597 15.33 20.6653 14.751C21.4709 14.172 22.4629 13.913 23.4487 14.0243C24.4346 14.1356 25.3438 14.6093 26 15.3534C26.6562 14.6093 27.5654 14.1356 28.5513 14.0243C29.5371 13.913 30.5291 14.172 31.3347 14.751C32.1403 15.33 32.7019 16.1877 32.9106 17.1576C33.1193 18.1275 32.9601 19.1403 32.464 19.9994H35C35.5304 19.9994 36.0391 20.2101 36.4142 20.5852C36.7893 20.9603 37 21.469 37 21.9994V23.9994C37 24.5299 36.7893 25.0386 36.4142 25.4136C36.0391 25.7887 35.5304 25.9994 35 25.9994H27V19.9994ZM21 17.9994C21 18.5299 21.2107 19.0386 21.5858 19.4136C21.9609 19.7887 22.4696 19.9994 23 19.9994H25V17.9994C25 17.469 24.7893 16.9603 24.4142 16.5852C24.0391 16.2101 23.5304 15.9994 23 15.9994C22.4696 15.9994 21.9609 16.2101 21.5858 16.5852C21.2107 16.9603 21 17.469 21 17.9994ZM27 19.9994H29C29.3956 19.9994 29.7822 19.8821 30.1111 19.6624C30.44 19.4426 30.6964 19.1302 30.8478 18.7648C30.9991 18.3993 31.0387 17.9972 30.9616 17.6092C30.8844 17.2213 30.6939 16.8649 30.4142 16.5852C30.1345 16.3055 29.7781 16.115 29.3902 16.0378C29.0022 15.9607 28.6001 16.0003 28.2346 16.1517C27.8692 16.303 27.5568 16.5594 27.3371 16.8883C27.1173 17.2172 27 17.6039 27 17.9994V19.9994ZM35 27.9994H27V37.9994H31C32.0609 37.9994 33.0783 37.578 33.8284 36.8278C34.5786 36.0777 35 35.0603 35 33.9994V27.9994ZM25 37.9994V27.9994H17V33.9994C17 35.0603 17.4214 36.0777 18.1716 36.8278C18.9217 37.578 19.9391 37.9994 21 37.9994H25Z" fill="white"/>
</svg>
