<svg width="25" height="26" viewBox="0 0 25 26" fill="none" xmlns="http://www.w3.org/2000/svg">
<path d="M12.2114 7.7694L5.92188 3.8847L12.2114 0L18.5009 3.8847L12.2114 7.7694Z" fill="#EAE7FF"/>
<path opacity="0.25" d="M12.2109 15.0949V7.76946L18.5004 3.88477V11.2102L12.2109 15.0949Z" fill="#40348D"/>
<path opacity="0.5" d="M12.2114 15.0949L5.92188 11.2102V3.88477L12.2114 7.76946V15.0949Z" fill="#413391"/>
<path d="M18.1294 18.4247L11.8398 14.54L18.1294 10.6553L24.4189 14.54L18.1294 18.4247Z" fill="#EAE7FF"/>
<path opacity="0.25" d="M18.1289 25.7502V18.4247L24.4184 14.54V21.8655L18.1289 25.7502Z" fill="#40348D"/>
<path opacity="0.5" d="M18.1294 25.7502L11.8398 21.8655V14.54L18.1294 18.4247V25.7502Z" fill="#413391"/>
<path d="M6.28951 18.4247L0 14.54L6.28951 10.6553L12.579 14.54L6.28951 18.4247Z" fill="#EAE7FF"/>
<path opacity="0.25" d="M6.28906 25.7502V18.4247L12.5786 14.54V21.8655L6.28906 25.7502Z" fill="#40348D"/>
<path opacity="0.5" d="M6.28951 25.7502L0 21.8655V14.54L6.28951 18.4247V25.7502Z" fill="#413391"/>
</svg>
