<svg width="51" height="51" viewBox="0 0 51 51" fill="none" xmlns="http://www.w3.org/2000/svg">
<circle cx="25.4998" cy="25.4998" r="25.4998" fill="#E2B100"/>
<path d="M26.1522 19.7782H24.0272V26.1531H15.5273C14.9637 26.1531 14.4232 25.9293 14.0247 25.5307C13.6262 25.1322 13.4023 24.5917 13.4023 24.0282V21.9032C13.4023 21.3396 13.6262 20.7991 14.0247 20.4006C14.4232 20.0021 14.9637 19.7782 15.5273 19.7782H18.2218C17.6947 18.8654 17.5255 17.7893 17.7473 16.7588C17.969 15.7283 18.5658 14.817 19.4217 14.2018C20.2776 13.5866 21.3316 13.3114 22.3791 13.4297C23.4265 13.548 24.3926 14.0513 25.0897 14.8419C25.7869 14.0513 26.753 13.548 27.8004 13.4297C28.8478 13.3114 29.9018 13.5866 30.7578 14.2018C31.6137 14.817 32.2105 15.7283 32.4322 16.7588C32.6539 17.7893 32.4848 18.8654 31.9577 19.7782H34.6521C35.2157 19.7782 35.7562 20.0021 36.1547 20.4006C36.5532 20.7991 36.7771 21.3396 36.7771 21.9032V24.0282C36.7771 24.5917 36.5532 25.1322 36.1547 25.5307C35.7562 25.9293 35.2157 26.1531 34.6521 26.1531H26.1522V19.7782ZM19.7773 17.6532C19.7773 18.2168 20.0012 18.7573 20.3997 19.1558C20.7982 19.5543 21.3387 19.7782 21.9023 19.7782H24.0272V17.6532C24.0272 17.0896 23.8034 16.5491 23.4048 16.1506C23.0063 15.7521 22.4658 15.5282 21.9023 15.5282C21.3387 15.5282 20.7982 15.7521 20.3997 16.1506C20.0012 16.5491 19.7773 17.0896 19.7773 17.6532ZM26.1522 19.7782H28.2772C28.6975 19.7782 29.1083 19.6536 29.4578 19.4201C29.8072 19.1866 30.0796 18.8547 30.2404 18.4664C30.4013 18.0781 30.4433 17.6509 30.3613 17.2387C30.2794 16.8264 30.077 16.4478 29.7798 16.1506C29.4826 15.8534 29.104 15.6511 28.6918 15.5691C28.2796 15.4871 27.8523 15.5292 27.464 15.69C27.0757 15.8508 26.7438 16.1232 26.5103 16.4726C26.2768 16.8221 26.1522 17.2329 26.1522 17.6532V19.7782ZM34.6521 28.2781H26.1522V38.903H30.4022C31.5293 38.903 32.6103 38.4552 33.4074 37.6582C34.2044 36.8612 34.6521 35.7802 34.6521 34.6531V28.2781ZM24.0272 38.903V28.2781H15.5273V34.6531C15.5273 35.7802 15.9751 36.8612 16.7721 37.6582C17.5691 38.4552 18.6501 38.903 19.7773 38.903H24.0272Z" fill="white"/>
</svg>
