<svg width="86" height="85" viewBox="0 0 86 85" fill="none" xmlns="http://www.w3.org/2000/svg">
<circle cx="43.1145" cy="42.4446" r="42.1926" fill="#2810BB"/>
<path d="M36.5134 56.0442C35.0788 56.0442 33.7029 55.4743 32.6885 54.4598C31.674 53.4454 31.1041 52.0695 31.1041 50.6349C31.1041 49.2002 31.674 47.8243 32.6885 46.8099C33.7029 45.7955 35.0788 45.2255 36.5134 45.2255C37.948 45.2255 39.3239 45.7955 40.3384 46.8099C41.3528 47.8243 41.9227 49.2002 41.9227 50.6349C41.9227 52.0695 41.3528 53.4454 40.3384 54.4598C39.3239 55.4743 37.948 56.0442 36.5134 56.0442ZM47.9966 52.134C48.0584 51.6394 48.1048 51.1449 48.1048 50.6349C48.1048 50.1248 48.0584 49.6148 47.9966 49.0893L51.2576 46.5701C51.5513 46.3383 51.6286 45.921 51.4431 45.581L48.3521 40.2335C48.1666 39.8935 47.7493 39.7544 47.4093 39.8935L43.561 41.439C42.7573 40.8363 41.9227 40.3108 40.949 39.9244L40.3772 35.8288C40.3154 35.4579 39.9908 35.1797 39.6044 35.1797H33.4224C33.036 35.1797 32.7114 35.4579 32.6496 35.8288L32.0778 39.9244C31.1041 40.3108 30.2695 40.8363 29.4659 41.439L25.6175 39.8935C25.2775 39.7544 24.8602 39.8935 24.6748 40.2335L21.5837 45.581C21.3828 45.921 21.4755 46.3383 21.7692 46.5701L25.0302 49.0893C24.9684 49.6148 24.922 50.1248 24.922 50.6349C24.922 51.1449 24.9684 51.6394 25.0302 52.134L21.7692 54.6996C21.4755 54.9314 21.3828 55.3487 21.5837 55.6887L24.6748 61.0362C24.8602 61.3762 25.2775 61.4998 25.6175 61.3762L29.4659 59.8152C30.2695 60.4334 31.1041 60.9589 32.0778 61.3453L32.6496 65.4409C32.7114 65.8118 33.036 66.09 33.4224 66.09H39.6044C39.9908 66.09 40.3154 65.8118 40.3772 65.4409L40.949 61.3453C41.9227 60.9435 42.7573 60.4334 43.561 59.8152L47.4093 61.3762C47.7493 61.4998 48.1666 61.3762 48.3521 61.0362L51.4431 55.6887C51.6286 55.3487 51.5513 54.9314 51.2576 54.6996L47.9966 52.134Z" fill="white"/>
<path d="M53.1624 35.3739C52.0562 35.3739 50.9953 34.9465 50.2132 34.1857C49.431 33.4249 48.9916 32.3929 48.9916 31.317C48.9916 30.241 49.431 29.2091 50.2132 28.4482C50.9953 27.6874 52.0562 27.26 53.1624 27.26C54.2685 27.26 55.3294 27.6874 56.1116 28.4482C56.8937 29.2091 57.3332 30.241 57.3332 31.317C57.3332 32.3929 56.8937 33.4249 56.1116 34.1857C55.3294 34.9465 54.2685 35.3739 53.1624 35.3739ZM62.0164 32.4413C62.064 32.0704 62.0998 31.6995 62.0998 31.317C62.0998 30.9344 62.064 30.5519 62.0164 30.1578L64.5308 28.2684C64.7572 28.0946 64.8168 27.7816 64.6738 27.5266L62.2904 23.516C62.1474 23.261 61.8257 23.1566 61.5635 23.261L58.5963 24.4201C57.9767 23.968 57.3332 23.5739 56.5824 23.2841L56.1415 20.2124C56.0938 19.9342 55.8436 19.7256 55.5457 19.7256H50.7791C50.4811 19.7256 50.2309 19.9342 50.1832 20.2124L49.7423 23.2841C48.9916 23.5739 48.3481 23.968 47.7284 24.4201L44.7612 23.261C44.499 23.1566 44.1773 23.261 44.0343 23.516L41.651 27.5266C41.4961 27.7816 41.5676 28.0946 41.794 28.2684L44.3084 30.1578C44.2607 30.5519 44.225 30.9344 44.225 31.317C44.225 31.6995 44.2607 32.0704 44.3084 32.4413L41.794 34.3655C41.5676 34.5394 41.4961 34.8523 41.651 35.1073L44.0343 39.118C44.1773 39.373 44.499 39.4657 44.7612 39.373L47.7284 38.2022C48.3481 38.6659 48.9916 39.06 49.7423 39.3498L50.1832 42.4215C50.2309 42.6997 50.4811 42.9083 50.7791 42.9083H55.5457C55.8436 42.9083 56.0938 42.6997 56.1415 42.4215L56.5824 39.3498C57.3332 39.0484 57.9767 38.6659 58.5963 38.2022L61.5635 39.373C61.8257 39.4657 62.1474 39.373 62.2904 39.118L64.6738 35.1073C64.8168 34.8523 64.7572 34.5394 64.5308 34.3655L62.0164 32.4413Z" fill="white"/>
</svg>
