<svg width="86" height="85" viewBox="0 0 86 85" fill="none" xmlns="http://www.w3.org/2000/svg">
<circle cx="43.0383" cy="42.2815" r="42.1926" fill="#A812A2"/>
<path d="M33.3014 23.8896C35.5968 23.8896 37.7982 24.8015 39.4213 26.4246C41.0444 28.0477 41.9563 30.2491 41.9563 32.5445C41.9563 36.5691 39.2083 39.9661 35.4651 40.9182V45.8082C36.2657 46.0029 37.023 46.3275 37.7154 46.7386L47.4954 36.9585C46.7165 35.6603 46.2837 34.1673 46.2837 32.5445C46.2837 30.2491 47.1956 28.0477 48.8187 26.4246C50.4418 24.8015 52.6432 23.8896 54.9386 23.8896C57.234 23.8896 59.4354 24.8015 61.0586 26.4246C62.6817 28.0477 63.5935 30.2491 63.5935 32.5445C63.5935 34.84 62.6817 37.0414 61.0586 38.6645C59.4354 40.2876 57.234 41.1994 54.9386 41.1994C53.3375 41.1994 51.8445 40.7667 50.6112 40.0094L40.7662 49.8543C41.5235 51.0877 41.9563 52.5806 41.9563 54.1818C41.9563 56.4772 41.0444 58.6786 39.4213 60.3017C37.7982 61.9248 35.5968 62.8367 33.3014 62.8367C31.006 62.8367 28.8046 61.9248 27.1814 60.3017C25.5583 58.6786 24.6465 56.4772 24.6465 54.1818C24.6465 50.1573 27.3944 46.7602 31.1377 45.8082V40.9182C27.3944 39.9661 24.6465 36.5691 24.6465 32.5445C24.6465 30.2491 25.5583 28.0477 27.1814 26.4246C28.8046 24.8015 31.006 23.8896 33.3014 23.8896ZM54.9386 45.5269C57.234 45.5269 59.4354 46.4387 61.0586 48.0618C62.6817 49.685 63.5935 51.8864 63.5935 54.1818C63.5935 56.4772 62.6817 58.6786 61.0586 60.3017C59.4354 61.9248 57.234 62.8367 54.9386 62.8367C52.6432 62.8367 50.4418 61.9248 48.8187 60.3017C47.1956 58.6786 46.2837 56.4772 46.2837 54.1818C46.2837 51.8864 47.1956 49.685 48.8187 48.0618C50.4418 46.4387 52.6432 45.5269 54.9386 45.5269ZM54.9386 49.8543C53.7909 49.8543 52.6902 50.3103 51.8787 51.1218C51.0671 51.9334 50.6112 53.0341 50.6112 54.1818C50.6112 55.3295 51.0671 56.4302 51.8787 57.2417C52.6902 58.0533 53.7909 58.5092 54.9386 58.5092C56.0863 58.5092 57.187 58.0533 57.9986 57.2417C58.8101 56.4302 59.2661 55.3295 59.2661 54.1818C59.2661 53.0341 58.8101 51.9334 57.9986 51.1218C57.187 50.3103 56.0863 49.8543 54.9386 49.8543Z" fill="white"/>
</svg>
