<svg width="126" height="126" viewBox="0 0 126 126" fill="none" xmlns="http://www.w3.org/2000/svg">
<circle cx="63.0005" cy="63" r="53.1176" fill="#6857CF"/>
<circle cx="63" cy="63" r="62.5" stroke="#6857CF"/>
<path d="M80.6028 55.1762C82.159 55.1762 83.6515 55.7216 84.7519 56.6924C85.8523 57.6632 86.4705 58.9798 86.4705 60.3527V86.2351C86.4705 87.6079 85.8523 88.9246 84.7519 89.8954C83.6515 90.8662 82.159 91.4115 80.6028 91.4115H45.3969C42.1404 91.4115 39.5293 89.0821 39.5293 86.2351V60.3527C39.5293 58.9798 40.1475 57.6632 41.2479 56.6924C42.3483 55.7216 43.8407 55.1762 45.3969 55.1762H71.8014V49.9998C71.8014 47.9404 70.8741 45.9655 69.2235 44.5093C67.5729 43.0531 65.3342 42.2351 62.9999 42.2351C60.6656 42.2351 58.4269 43.0531 56.7763 44.5093C55.1257 45.9655 54.1984 47.9404 54.1984 49.9998H48.3308C48.3308 46.5676 49.8763 43.2759 52.6273 40.849C55.3782 38.422 59.1094 37.0586 62.9999 37.0586C64.9263 37.0586 66.8338 37.3933 68.6135 38.0437C70.3933 38.694 72.0104 39.6473 73.3725 40.849C74.7347 42.0507 75.8152 43.4773 76.5524 45.0474C77.2896 46.6175 77.669 48.3003 77.669 49.9998V55.1762H80.6028ZM62.9999 78.4704C64.5561 78.4704 66.0485 77.925 67.1489 76.9542C68.2493 75.9834 68.8675 74.6668 68.8675 73.2939C68.8675 71.921 68.2493 70.6043 67.1489 69.6336C66.0485 68.6628 64.5561 68.1174 62.9999 68.1174C61.4437 68.1174 59.9512 68.6628 58.8508 69.6336C57.7504 70.6043 57.1322 71.921 57.1322 73.2939C57.1322 74.6668 57.7504 75.9834 58.8508 76.9542C59.9512 77.925 61.4437 78.4704 62.9999 78.4704Z" fill="white"/>
</svg>
