<svg width="159" height="159" viewBox="0 0 159 159" fill="none" xmlns="http://www.w3.org/2000/svg">
<circle cx="79.5" cy="79.5" r="79.5" fill="black" fill-opacity="0.78"/>
<path d="M72.0703 96.8875H71.5703V97.3875C71.5703 98.2753 71.9158 99.3227 72.4554 100.15C72.9832 100.959 73.798 101.703 74.8046 101.703H90.8261V107.882C90.8261 110.769 89.7146 113.535 87.741 115.572C85.7679 117.609 83.0952 118.75 80.3118 118.75H63.8288C61.0454 118.75 58.3727 117.609 56.3996 115.572C54.4259 113.535 53.3144 110.769 53.3144 107.882V92.9753C53.3144 86.9582 58.0326 82.1465 63.8288 82.1465H84.0474C90.4254 82.1465 95.5232 76.8173 95.5232 70.278V60.125H99.5676C102.351 60.125 105.024 61.2661 106.997 63.3027C108.97 65.3398 110.082 68.106 110.082 70.9935V86.019C110.082 88.9065 108.97 91.6727 106.997 93.7098C105.024 95.7464 102.351 96.8875 99.5676 96.8875H72.0703ZM72.0703 62.1125H72.5703V61.6125C72.5703 60.7247 72.2247 59.6773 71.6851 58.85C71.1573 58.0408 70.3426 57.2965 69.3359 57.2965H53.3144V51.1185C53.3144 45.0991 58.0349 40.25 63.8288 40.25H80.3118C86.1057 40.25 90.8261 45.0991 90.8261 51.1185V66.0247C90.8261 72.0418 86.1079 76.8535 80.3118 76.8535H60.0931C53.7151 76.8535 48.6173 82.1827 48.6173 88.722V98.875H44.5729C38.779 98.875 34.0586 94.0259 34.0586 88.0065V72.981C34.0586 66.9616 38.779 62.1125 44.5729 62.1125H72.0703ZM83.0846 105.99C82.1777 105.99 81.3411 106.345 80.7389 107.057C80.1424 107.761 79.8118 108.771 79.8118 110.028C79.8118 111.283 80.1431 112.161 80.8026 112.705C81.4414 113.231 82.2829 113.35 83.0846 113.35C83.5116 113.35 83.934 113.263 84.3276 113.095C84.7211 112.927 85.0776 112.681 85.3772 112.372C85.6767 112.062 85.9135 111.696 86.0748 111.294C86.2361 110.892 86.319 110.462 86.319 110.028C86.319 108.771 85.9883 107.762 85.3981 107.058C84.8026 106.348 83.976 105.99 83.0846 105.99ZM61.0559 53.0098C61.9629 53.0098 62.7995 52.6546 63.4016 51.9434C63.9981 51.2389 64.3288 50.229 64.3288 48.972C64.3288 47.7174 63.9974 46.8387 63.3379 46.2955C62.6991 45.7693 61.8577 45.6498 61.0559 45.6498C60.2713 45.6498 59.4394 45.77 58.8058 46.297C58.1529 46.84 57.8216 47.7174 57.8216 48.972C57.8216 50.2291 58.1523 51.2379 58.7424 51.9416C59.338 52.6518 60.1646 53.0098 61.0559 53.0098Z" fill="#1B87C4" stroke="white"/>
</svg>
