<svg width="67" height="67" viewBox="0 0 67 67" fill="none" xmlns="http://www.w3.org/2000/svg">
<circle cx="33.5" cy="33.5" r="33.5" fill="#A812A2"/>
<path d="M44.5367 31.6829H41.883V30.7743H38.3448V36.226H41.883V35.3174H44.5367V37.1346C44.5367 37.6165 44.3503 38.0787 44.0185 38.4195C43.6867 38.7603 43.2368 38.9518 42.7676 38.9518H37.4602C36.991 38.9518 36.541 38.7603 36.2093 38.4195C35.8775 38.0787 35.6911 37.6165 35.6911 37.1346V29.8657C35.6911 29.3837 35.8775 28.9215 36.2093 28.5807C36.541 28.2399 36.991 28.0485 37.4602 28.0485H42.7676C43.2368 28.0485 43.6867 28.2399 44.0185 28.5807C44.3503 28.9215 44.5367 29.3837 44.5367 29.8657M32.1529 31.6829H29.4992V30.7743H25.961V36.226H29.4992V35.3174H32.1529V37.1346C32.1529 37.6165 31.9665 38.0787 31.6347 38.4195C31.303 38.7603 30.853 38.9518 30.3838 38.9518H25.0764C24.6072 38.9518 24.1573 38.7603 23.8255 38.4195C23.4937 38.0787 23.3073 37.6165 23.3073 37.1346V29.8657C23.3073 29.3837 23.4937 28.9215 23.8255 28.5807C24.1573 28.2399 24.6072 28.0485 25.0764 28.0485H30.3838C30.853 28.0485 31.303 28.2399 31.6347 28.5807C31.9665 28.9215 32.1529 29.3837 32.1529 29.8657M46.3058 18.9624H21.5382C19.5745 18.9624 18 20.5797 18 22.5968V44.4034C18 45.3674 18.3728 46.2918 19.0363 46.9734C19.6999 47.655 20.5998 48.0379 21.5382 48.0379H46.3058C47.2442 48.0379 48.1441 47.655 48.8077 46.9734C49.4712 46.2918 49.844 45.3674 49.844 44.4034V22.5968C49.844 20.5797 48.2518 18.9624 46.3058 18.9624Z" fill="white"/>
</svg>
