<svg width="86" height="85" viewBox="0 0 86 85" fill="none" xmlns="http://www.w3.org/2000/svg">
<circle cx="42.9602" cy="42.2815" r="42.1926" fill="#F8190A"/>
<path d="M16.564 40.3239L33.4602 23.3984L38.4005 28.3679C37.6989 30.8527 38.839 33.5712 41.1191 34.8867V51.0813C39.3652 52.0752 38.1959 53.9753 38.1959 56.1385C38.1959 57.6891 38.8118 59.1761 39.9082 60.2726C41.0047 61.369 42.4917 61.9849 44.0423 61.9849C45.5929 61.9849 47.0799 61.369 48.1764 60.2726C49.2728 59.1761 49.8887 57.6891 49.8887 56.1385C49.8887 53.9753 48.7195 52.0752 46.9655 51.0813V36.8745L53.0166 42.984C52.812 43.4225 52.812 43.9194 52.812 44.4456C52.812 45.9962 53.4279 47.4833 54.5243 48.5797C55.6208 49.6761 57.1078 50.2921 58.6584 50.2921C60.209 50.2921 61.696 49.6761 62.7925 48.5797C63.8889 47.4833 64.5048 45.9962 64.5048 44.4456C64.5048 42.8951 63.8889 41.408 62.7925 40.3116C61.696 39.2151 60.209 38.5992 58.6584 38.5992C58.1322 38.5992 57.6353 38.5992 57.1968 38.8038L49.6841 31.2911C50.4442 28.5725 49.041 25.5909 46.3224 24.4508C45.0654 23.9831 43.75 23.8662 42.5807 24.1877L37.6112 19.2475L39.9206 16.9674C42.2007 14.658 45.8839 14.658 48.164 16.9674L71.5206 40.3239C73.8299 42.604 73.8299 46.2873 71.5206 48.5674L48.164 71.9239C45.8839 74.2332 42.2007 74.2332 39.9206 71.9239L16.564 48.5674C14.2547 46.2873 14.2547 42.604 16.564 40.3239Z" fill="white"/>
</svg>
