<svg width="133" height="133" viewBox="0 0 133 133" fill="none" xmlns="http://www.w3.org/2000/svg">
<circle cx="66.5" cy="66.5" r="66.5" fill="white"/>
<g clip-path="url(#clip0_682_71)">
<path d="M90.9146 44.9932L86.4661 94.6371L66.4699 100.159L46.5288 94.6447L42.085 44.9932H90.9146Z" fill="#E44D26"/>
<path d="M66.5 95.9382L82.6579 91.4758L86.4593 49.0527H66.5V95.9382Z" fill="#F16529"/>
<path d="M57.8525 61.2321H66.5003V55.1426H51.1719L51.3181 56.7763L52.8206 73.5575H66.5003V67.4679H58.4112L57.8525 61.2321ZM59.2303 76.6024H53.0938L53.9501 86.1639L66.4721 89.6266L66.5003 89.6189V83.2832L66.4735 83.2903L59.6655 81.459L59.2303 76.6024Z" fill="#EBEBEB"/>
<path d="M46.6279 31.5H49.7345V34.5575H52.5763V31.5H55.683V40.7588H52.5765V37.6584H49.7346V40.7588H46.6281V31.5H46.6279ZM59.768 34.5704H57.0335V31.5H65.6112V34.5704H62.8751V40.7588H59.7685V34.5704H59.7684H59.768ZM66.9725 31.5H70.2117L72.2042 34.7533L74.1948 31.5H77.4353V40.7588H74.3414V36.1696L72.2042 39.4616H72.1506L70.012 36.1696V40.7588H66.9725V31.5ZM78.9813 31.5H82.0888V37.6984H86.4575V40.7588H78.9811V31.5H78.9813Z" fill="black"/>
<path d="M66.4787 73.5575H74.0061L73.2964 81.4552L66.4785 83.2884V89.6237L79.0105 86.1639L79.1023 85.135L80.539 69.1032L80.6881 67.4679H66.4787V73.5575ZM66.4787 61.2173V61.2321H81.2444L81.3669 59.8635L81.6455 56.7763L81.7916 55.1426H66.4787V61.2175V61.2173Z" fill="white"/>
</g>
<defs>
<clipPath id="clip0_682_71">
<rect width="49" height="68.8333" fill="white" transform="translate(42 31.5)"/>
</clipPath>
</defs>
</svg>
