<svg width="39" height="39" viewBox="0 0 39 39" fill="none" xmlns="http://www.w3.org/2000/svg">
<circle cx="19.5" cy="19.5" r="19.5" fill="#0EB200"/>
<path d="M18.5635 29.75C18.3649 29.75 18.2024 29.6778 18.076 29.5333C17.9496 29.3889 17.9045 29.2174 17.9406 29.0188L18.9156 22.1667H15.1239C14.8531 22.1667 14.6859 22.0944 14.6223 21.95C14.5595 21.8056 14.6003 21.6069 14.7447 21.3542L20.9197 10.5479C20.9558 10.4576 21.0281 10.3854 21.1364 10.3313C21.2447 10.2771 21.344 10.25 21.4343 10.25C21.6329 10.25 21.7954 10.3222 21.9218 10.4667C22.0482 10.6111 22.0933 10.7826 22.0572 10.9812L21.0822 17.8333H24.8739C25.1447 17.8333 25.3116 17.9056 25.3744 18.05C25.438 18.1944 25.3975 18.3931 25.2531 18.6458L19.0781 29.4521C19.042 29.5424 18.9697 29.6146 18.8614 29.6688C18.7531 29.7229 18.6538 29.75 18.5635 29.75Z" fill="white"/>
</svg>
