<svg width="67" height="67" viewBox="0 0 67 67" fill="none" xmlns="http://www.w3.org/2000/svg">
<circle cx="33.5" cy="33.5" r="33.5" fill="#F9F01A"/>
<path d="M35.6736 23.5295C35.6736 23.5295 28.1416 25.2009 31.7535 28.8859C32.8216 29.9709 31.4782 30.9483 31.4782 30.9483C31.4782 30.9483 34.176 29.7265 32.9207 28.1626C31.7535 26.7258 30.8725 26.0122 35.6736 23.5295ZM30.7514 24.7024C35.2111 21.5746 32.9207 19.5415 32.9207 19.5415C33.8457 22.7671 29.6612 23.7445 28.1526 25.7581C27.1175 27.1265 28.6592 28.6025 30.7184 30.2934C29.9365 28.6318 27.1726 27.2047 30.7514 24.7024ZM27.8223 34.6626C24.4307 35.5032 29.8925 37.2333 34.198 35.601C33.7796 35.4544 33.3722 35.2784 32.9868 35.0732C31.4892 35.3762 29.9475 35.4348 28.4279 35.2491C26.9854 35.0927 27.8223 34.6626 27.8223 34.6626ZM33.6805 33.0205C31.7535 33.392 29.7603 33.4799 27.8003 33.2747C26.3577 33.1476 27.3047 32.522 27.3047 32.522C23.5608 33.6265 29.3749 34.8679 34.5724 33.519C34.2531 33.4115 33.9448 33.2258 33.6805 33.0205ZM37.4465 36.2461C37.4465 36.2461 38.0742 36.7055 36.7748 37.0574C34.2641 37.722 26.3908 37.9273 24.2105 37.0867C23.4286 36.7837 24.9042 36.3634 25.3667 36.2754C25.62 36.2168 25.8732 36.1972 26.1265 36.1972C25.2566 35.6694 20.4775 37.2724 23.7149 37.722C32.4912 38.9927 39.7259 37.1356 37.4465 36.2461ZM34.4293 31.4957C34.7486 31.31 35.09 31.1536 35.4424 31.0168C35.4424 31.0168 33.7796 31.2709 32.1168 31.4077C30.355 31.5641 28.5821 31.5837 26.8202 31.4664C24.2325 31.1634 28.2407 30.2934 28.2407 30.2934C27.0294 30.2934 25.8402 30.5476 24.761 31.0265C22.5036 32.004 30.377 32.4438 34.4293 31.4957ZM35.4203 33.8611C35.3983 33.9002 35.3763 33.9295 35.3323 33.9589C40.8491 32.6784 38.823 29.4235 36.1802 30.2348C36.037 30.2934 35.9159 30.3716 35.8388 30.4792C35.993 30.4303 36.1471 30.3912 36.3123 30.3619C37.6337 30.1273 39.5277 31.9551 35.4203 33.8611ZM35.5635 38.3672C32.249 38.8754 28.8574 38.9145 25.5208 38.504C25.5208 38.504 26.0274 38.8754 28.6151 39.0221C32.5793 39.2469 38.6688 38.895 38.8119 37.2333C38.845 37.2431 38.5587 37.8687 35.5635 38.3672Z" fill="white"/>
<path d="M32.7374 29.1463C32.7177 29.2329 32.6797 29.3226 32.6246 29.4143L32.1105 28.5359C31.2805 27.689 31.1933 27.0733 31.322 26.6353C31.3682 26.478 31.4474 26.323 31.5562 26.1711C31.4239 26.6438 31.5452 27.0642 31.7466 27.4253C31.914 27.7252 32.1639 28.029 32.3999 28.3159C32.4445 28.3701 32.4887 28.4238 32.5316 28.4767C32.7595 28.7611 32.7762 28.9766 32.7374 29.1463ZM25.4618 31.2825C25.4632 31.2897 25.4648 31.2968 25.4665 31.3038C25.4523 31.3013 25.4383 31.2988 25.4244 31.2963C25.4368 31.2917 25.4493 31.2871 25.4618 31.2825ZM24.7571 31.1063C24.7539 31.104 24.7544 31.104 24.7575 31.1066L24.7571 31.1063ZM24.7803 31.5814C24.7795 31.5821 24.7791 31.5825 24.7791 31.5825L24.7803 31.5814ZM23.3687 37.1518C23.4136 37.1284 23.4628 37.1044 23.5162 37.08C23.5295 37.1206 23.5466 37.1581 23.5661 37.1924C23.4921 37.1791 23.4266 37.1655 23.3687 37.1518ZM23.0231 37.0286C23.0233 37.0286 23.0252 37.0299 23.0284 37.0325C23.0245 37.03 23.0229 37.0286 23.0231 37.0286ZM23.0732 37.3507C23.0708 37.3545 23.0691 37.3564 23.0689 37.3564C23.0687 37.3564 23.0699 37.3545 23.0732 37.3507ZM28.5514 26.0597L28.5528 26.0579C28.7306 25.8206 28.9558 25.5941 29.2178 25.3694C28.9762 25.6441 28.7955 25.9172 28.6711 26.1916C28.5056 26.5567 28.4474 26.9071 28.4651 27.2397C28.3826 27.0642 28.3379 26.9059 28.3254 26.7628C28.3058 26.5386 28.3613 26.311 28.5514 26.0597Z" stroke="black" stroke-opacity="0.99"/>
</svg>
