<svg width="85" height="85" viewBox="0 0 85 85" fill="none" xmlns="http://www.w3.org/2000/svg">
<circle cx="42.8098" cy="42.2815" r="42.1926" fill="#4FF615"/>
<path d="M55.7921 54.1818H62.2833L53.6284 62.8367L44.9735 54.1818H51.4647V23.8896H55.7921V54.1818ZM34.1549 45.5269H29.8274C27.4474 45.5269 25.5 47.4742 25.5 49.8543V52.0181C25.5 54.4198 27.4474 56.3455 29.8274 56.3455H34.1549V58.5092H25.5V62.8367H34.1549C36.5566 62.8367 38.4823 60.911 38.4823 58.5092V49.8543C38.4823 47.4742 36.5566 45.5269 34.1549 45.5269ZM34.1549 52.0181H29.8274V49.8543H34.1549V52.0181ZM34.1549 23.8896H29.8274C27.4474 23.8896 25.5 25.837 25.5 28.2171V36.872C25.5 39.2737 27.4474 41.1994 29.8274 41.1994H34.1549C36.5566 41.1994 38.4823 39.2737 38.4823 36.872V28.2171C38.4823 25.837 36.5566 23.8896 34.1549 23.8896ZM34.1549 36.872H29.8274V28.2171H34.1549V36.872Z" fill="white"/>
</svg>
