<svg width="49" height="70" viewBox="0 0 49 70" fill="none" xmlns="http://www.w3.org/2000/svg">
<g clip-path="url(#clip0_682_65)">
<path d="M48.9146 13.9932L44.4661 63.6371L24.4699 69.1594L4.52884 63.6447L0.0849609 13.9932H48.9146Z" fill="#E44D26"/>
<path d="M24.5 64.9382L40.6579 60.4758L44.4593 18.0527H24.5V64.9382Z" fill="#F16529"/>
<path d="M15.8525 30.2321H24.5003V24.1426H9.17188L9.31811 25.7763L10.8206 42.5575H24.5003V36.4679H16.4112L15.8525 30.2321ZM17.2303 45.6024H11.0938L11.9501 55.1639L24.4721 58.6266L24.5003 58.6189V52.2832L24.4735 52.2903L17.6655 50.459L17.2303 45.6024Z" fill="#EBEBEB"/>
<path d="M4.62793 0.5H7.73445V3.55746H10.5763V0.5H13.683V9.75875H10.5765V6.65839H7.73464V9.75875H4.62812V0.5H4.62793ZM17.768 3.57042H15.0335V0.5H23.6112V3.57042H20.8751V9.75875H17.7685V3.57042H17.7684H17.768ZM24.9725 0.5H28.2117L30.2042 3.75328L32.1948 0.5H35.4353V9.75875H32.3414V5.16961L30.2042 8.4616H30.1506L28.012 5.16961V9.75875H24.9725V0.5ZM36.9813 0.5H40.0888V6.69843H44.4575V9.75875H36.9811V0.5H36.9813Z" fill="black"/>
<path d="M24.4787 42.5575H32.0061L31.2964 50.4552L24.4785 52.2884V58.6237L37.0105 55.1639L37.1023 54.135L38.539 38.1032L38.6881 36.4679H24.4787V42.5575ZM24.4787 30.2173V30.2321H39.2444L39.3669 28.8635L39.6455 25.7763L39.7916 24.1426H24.4787V30.2175V30.2173Z" fill="white"/>
</g>
<defs>
<clipPath id="clip0_682_65">
<rect width="49" height="68.8333" fill="white" transform="translate(0 0.5)"/>
</clipPath>
</defs>
</svg>
