<svg width="26" height="26" viewBox="0 0 26 26" fill="none" xmlns="http://www.w3.org/2000/svg">
<path d="M11.7013 17.2248L16.7605 13.4332C17.053 13.2165 17.053 12.7832 16.7605 12.5665L11.7013 8.77484C11.6208 8.71448 11.5251 8.67773 11.4249 8.66869C11.3248 8.65966 11.224 8.6787 11.1341 8.72369C11.0441 8.76868 10.9684 8.83783 10.9155 8.9234C10.8626 9.00897 10.8346 9.10758 10.8346 9.20817V16.7915C10.8346 17.2357 11.3438 17.4957 11.7013 17.2248ZM13.0013 2.1665C7.0213 2.1665 2.16797 7.01984 2.16797 12.9998C2.16797 18.9798 7.0213 23.8332 13.0013 23.8332C18.9813 23.8332 23.8346 18.9798 23.8346 12.9998C23.8346 7.01984 18.9813 2.1665 13.0013 2.1665ZM13.0013 21.6665C8.2238 21.6665 4.33464 17.7773 4.33464 12.9998C4.33464 8.22234 8.2238 4.33317 13.0013 4.33317C17.7788 4.33317 21.668 8.22234 21.668 12.9998C21.668 17.7773 17.7788 21.6665 13.0013 21.6665Z" fill="#5A48C8"/>
</svg>
