<svg width="67" height="67" viewBox="0 0 67 67" fill="none" xmlns="http://www.w3.org/2000/svg">
<path d="M67 33.5C67 52.0015 52.0015 67 33.5 67C14.9985 67 0 52.0015 0 33.5C0 14.9985 14.9985 0 33.5 0C52.0015 0 67 14.9985 67 33.5Z" fill="#1C71A2"/>
<path d="M41.5184 11.6245C41.5184 12.2238 41.3621 12.7449 41.0494 13.1878C40.7367 13.6308 40.385 13.9825 39.9942 14.2431C39.3428 13.8001 38.6002 13.4093 37.7664 13.0706C36.9587 12.7319 35.9946 12.5625 34.8742 12.5625C33.4933 12.5625 32.2947 12.8621 31.2786 13.4614C30.2624 14.0607 29.4807 14.9336 28.9336 16.08C28.4125 17.2264 28.1519 18.6204 28.1519 20.2619C28.1519 22.7633 28.7772 24.6653 30.0279 25.9681C31.2786 27.2709 32.9982 27.9223 35.1869 27.9223C36.3073 27.9223 37.2714 27.7659 38.0791 27.4532C38.8868 27.1406 39.6294 26.7888 40.3068 26.398C40.6977 26.6846 41.0103 27.0624 41.2448 27.5314C41.5054 27.9744 41.6357 28.4955 41.6357 29.0948C41.6357 29.6159 41.4924 30.0979 41.2057 30.5408C40.9452 30.9838 40.4892 31.3616 39.8378 31.6742C39.3428 31.9348 38.6393 32.1823 37.7273 32.4168C36.8154 32.6513 35.708 32.7686 34.4052 32.7686C32.1124 32.7686 30.0149 32.3256 28.1128 31.4398C26.2368 30.5278 24.7517 29.1599 23.6573 27.336C22.563 25.4861 22.0158 23.128 22.0158 20.2619C22.0158 17.5521 22.55 15.2723 23.6182 13.4223C24.7126 11.5463 26.1717 10.1263 27.9956 9.16225C29.8195 8.19819 31.8388 7.71617 34.0535 7.71617C35.5908 7.71617 36.9196 7.89856 38.04 8.26333C39.1604 8.60206 40.0202 9.07106 40.6195 9.67033C41.2188 10.2436 41.5184 10.8949 41.5184 11.6245Z" fill="white"/>
<path d="M17.7481 47.0954L18.9988 51.0038L12.8236 49.2059C12.6933 48.789 12.6282 48.3591 12.6282 47.9162C12.6282 47.3169 12.7976 46.8609 13.1363 46.5483C13.475 46.2095 13.944 46.0402 14.5433 46.0402C14.7257 46.0402 14.9081 46.0662 15.0904 46.1183C15.2989 46.1704 15.5073 46.2356 15.7158 46.3138L17.7481 47.0954ZM20.6403 48.8932L16.9274 54.3258C16.7971 54.3519 16.6538 54.3779 16.4974 54.404C16.3672 54.4301 16.2499 54.4431 16.1457 54.4431C15.364 54.4431 14.7778 54.2868 14.3869 53.9741C13.9961 53.6354 13.8007 53.2054 13.8007 52.6843C13.8007 52.3977 13.8658 52.1241 13.9961 51.8636C14.1524 51.603 14.3348 51.3294 14.5433 51.0428L15.9894 49.245L20.6403 48.8932ZM17.4354 50.1048L19.5459 47.369L23.3761 52.6453C23.2198 53.1664 22.9462 53.5963 22.5554 53.935C22.1906 54.2737 21.7476 54.4431 21.2265 54.4431C20.6794 54.4431 20.2494 54.2868 19.9368 53.9741C19.6502 53.6354 19.3766 53.2445 19.116 52.8016L17.4354 50.1048ZM17.1619 48.1116L22.7117 45.6102C23.1025 45.7926 23.4412 46.0662 23.7279 46.431C24.0145 46.7958 24.1578 47.2257 24.1578 47.7208C24.1578 48.2679 24.0014 48.6457 23.6888 48.8542C23.4022 49.0626 23.0113 49.2711 22.5163 49.4795L19.8977 50.6129L17.1619 48.1116ZM20.1322 48.2679L16.6929 49.9876L16.6538 43.6952C16.8362 43.5649 17.0837 43.4216 17.3964 43.2653C17.7351 43.1089 18.1129 43.0308 18.5298 43.0308C19.0769 43.0308 19.5069 43.1741 19.8195 43.4607C20.1582 43.7212 20.3276 44.1381 20.3276 44.7113C20.3276 44.8416 20.3146 45.1543 20.2885 45.6493C20.2625 46.1183 20.2364 46.6134 20.2104 47.1345C20.1843 47.6556 20.1582 48.0334 20.1322 48.2679Z" fill="white"/>
<path d="M31.7738 47.0954L33.0245 51.0038L26.8493 49.2059C26.7191 48.789 26.6539 48.3591 26.6539 47.9162C26.6539 47.3169 26.8233 46.8609 27.162 46.5483C27.5007 46.2095 27.9697 46.0402 28.569 46.0402C28.7514 46.0402 28.9338 46.0662 29.1162 46.1183C29.3246 46.1704 29.5331 46.2356 29.7415 46.3138L31.7738 47.0954ZM34.666 48.8932L30.9531 54.3258C30.8228 54.3519 30.6795 54.3779 30.5232 54.404C30.3929 54.4301 30.2756 54.4431 30.1714 54.4431C29.3898 54.4431 28.8035 54.2868 28.4127 53.9741C28.0218 53.6354 27.8264 53.2054 27.8264 52.6843C27.8264 52.3977 27.8916 52.1241 28.0218 51.8636C28.1782 51.603 28.3606 51.3294 28.569 51.0428L30.0151 49.245L34.666 48.8932ZM31.4612 50.1048L33.5717 47.369L37.4018 52.6453C37.2455 53.1664 36.9719 53.5963 36.5811 53.935C36.2163 54.2737 35.7734 54.4431 35.2523 54.4431C34.7051 54.4431 34.2752 54.2868 33.9625 53.9741C33.6759 53.6354 33.4023 53.2445 33.1417 52.8016L31.4612 50.1048ZM31.1876 48.1116L36.7374 45.6102C37.1283 45.7926 37.467 46.0662 37.7536 46.431C38.0402 46.7958 38.1835 47.2257 38.1835 47.7208C38.1835 48.2679 38.0272 48.6457 37.7145 48.8542C37.4279 49.0626 37.0371 49.2711 36.542 49.4795L33.9234 50.6129L31.1876 48.1116ZM34.1579 48.2679L30.7186 49.9876L30.6795 43.6952C30.8619 43.5649 31.1094 43.4216 31.4221 43.2653C31.7608 43.1089 32.1386 43.0308 32.5555 43.0308C33.1027 43.0308 33.5326 43.1741 33.8452 43.4607C34.184 43.7212 34.3533 44.1381 34.3533 44.7113C34.3533 44.8416 34.3403 45.1543 34.3142 45.6493C34.2882 46.1183 34.2621 46.6134 34.2361 47.1345C34.21 47.6556 34.184 48.0334 34.1579 48.2679Z" fill="white"/>
<path d="M45.7996 47.0954L47.0502 51.0038L40.8751 49.2059C40.7448 48.789 40.6796 48.3591 40.6796 47.9162C40.6796 47.3169 40.849 46.8609 41.1877 46.5483C41.5264 46.2095 41.9954 46.0402 42.5947 46.0402C42.7771 46.0402 42.9595 46.0662 43.1419 46.1183C43.3503 46.1704 43.5588 46.2356 43.7672 46.3138L45.7996 47.0954ZM48.6917 48.8932L44.9788 54.3258C44.8485 54.3519 44.7052 54.3779 44.5489 54.404C44.4186 54.4301 44.3014 54.4431 44.1971 54.4431C43.4155 54.4431 42.8292 54.2868 42.4384 53.9741C42.0476 53.6354 41.8521 53.2054 41.8521 52.6843C41.8521 52.3977 41.9173 52.1241 42.0476 51.8636C42.2039 51.603 42.3863 51.3294 42.5947 51.0428L44.0408 49.245L48.6917 48.8932ZM45.4869 50.1048L47.5974 47.369L51.4276 52.6453C51.2712 53.1664 50.9976 53.5963 50.6068 53.935C50.242 54.2737 49.7991 54.4431 49.278 54.4431C48.7308 54.4431 48.3009 54.2868 47.9882 53.9741C47.7016 53.6354 47.428 53.2445 47.1675 52.8016L45.4869 50.1048ZM45.2133 48.1116L50.7631 45.6102C51.154 45.7926 51.4927 46.0662 51.7793 46.431C52.0659 46.7958 52.2092 47.2257 52.2092 47.7208C52.2092 48.2679 52.0529 48.6457 51.7402 48.8542C51.4536 49.0626 51.0628 49.2711 50.5677 49.4795L47.9491 50.6129L45.2133 48.1116ZM48.1836 48.2679L44.7443 49.9876L44.7052 43.6952C44.8876 43.5649 45.1351 43.4216 45.4478 43.2653C45.7865 43.1089 46.1643 43.0308 46.5812 43.0308C47.1284 43.0308 47.5583 43.1741 47.871 43.4607C48.2097 43.7212 48.3791 44.1381 48.3791 44.7113C48.3791 44.8416 48.366 45.1543 48.34 45.6493C48.3139 46.1183 48.2879 46.6134 48.2618 47.1345C48.2358 47.6556 48.2097 48.0334 48.1836 48.2679Z" fill="white"/>
</svg>
