<svg width="55" height="55" viewBox="0 0 55 55" fill="none" xmlns="http://www.w3.org/2000/svg">
<path d="M34.6611 48.3543L15.3538 29.1043C15.1247 28.8752 14.9627 28.6269 14.868 28.3595C14.7718 28.0922 14.7236 27.8057 14.7236 27.5002C14.7236 27.1946 14.7718 26.9081 14.868 26.6408C14.9627 26.3734 15.1247 26.1252 15.3538 25.896L34.6611 6.5887C35.1959 6.05398 35.8643 5.78662 36.6663 5.78662C37.4684 5.78662 38.1559 6.07308 38.7288 6.646C39.3018 7.21891 39.5882 7.88732 39.5882 8.6512C39.5882 9.41509 39.3018 10.0835 38.7288 10.6564L21.8851 27.5002L38.7288 44.3439C39.2636 44.8786 39.5309 45.5371 39.5309 46.3193C39.5309 47.1031 39.2445 47.7814 38.6716 48.3543C38.0986 48.9272 37.4302 49.2137 36.6663 49.2137C35.9025 49.2137 35.234 48.9272 34.6611 48.3543Z" fill="#999999"/>
</svg>
