<svg width="45" height="45" viewBox="0 0 45 45" fill="none" xmlns="http://www.w3.org/2000/svg">
<path d="M28.125 39.375C24.4375 39.375 21.1563 38.3281 18.2813 36.2344C15.4063 34.1406 13.375 31.4375 12.1875 28.125H7.50001C6.96876 28.125 6.52313 27.945 6.16313 27.585C5.80313 27.225 5.62376 26.78 5.62501 26.25C5.62501 25.7188 5.80501 25.2731 6.16501 24.9131C6.52501 24.5531 6.97001 24.3738 7.50001 24.375H11.3438C11.2813 24.0312 11.25 23.7188 11.25 23.4375V21.5625C11.25 21.2812 11.2813 20.9688 11.3438 20.625H7.50001C6.96876 20.625 6.52313 20.445 6.16313 20.085C5.80313 19.725 5.62376 19.28 5.62501 18.75C5.62501 18.2188 5.80501 17.7731 6.16501 17.4131C6.52501 17.0531 6.97001 16.8737 7.50001 16.875H12.1875C13.375 13.5625 15.4063 10.8594 18.2813 8.76563C21.1563 6.67188 24.4375 5.625 28.125 5.625C29.8438 5.625 31.4769 5.85938 33.0244 6.32812C34.5719 6.79688 36.0169 7.46875 37.3594 8.34375C37.9219 8.71875 38.2269 9.25 38.2744 9.9375C38.3219 10.625 38.0794 11.2344 37.5469 11.7656C37.1719 12.1406 36.6956 12.3594 36.1181 12.4219C35.5406 12.4844 34.9856 12.3594 34.4531 12.0469C33.5156 11.5156 32.5156 11.0938 31.4531 10.7812C30.3906 10.4688 29.2813 10.3125 28.125 10.3125C25.7813 10.3125 23.6488 10.9144 21.7275 12.1181C19.8063 13.3219 18.345 14.9075 17.3438 16.875H26.25C26.7813 16.875 27.2269 17.055 27.5869 17.415C27.9469 17.775 28.1263 18.22 28.125 18.75C28.125 19.2812 27.945 19.7269 27.585 20.0869C27.225 20.4469 26.78 20.6263 26.25 20.625H16.125C16.0625 20.9688 16.0156 21.2812 15.9844 21.5625C15.9531 21.8438 15.9375 22.1562 15.9375 22.5C15.9375 22.8438 15.9531 23.1562 15.9844 23.4375C16.0156 23.7188 16.0625 24.0312 16.125 24.375H26.25C26.7813 24.375 27.2269 24.555 27.5869 24.915C27.9469 25.275 28.1263 25.72 28.125 26.25C28.125 26.7812 27.945 27.2269 27.585 27.5869C27.225 27.9469 26.78 28.1262 26.25 28.125H17.3438C18.3438 30.0938 19.8044 31.68 21.7256 32.8838C23.6469 34.0875 25.78 34.6887 28.125 34.6875C29.25 34.6875 30.3594 34.5312 31.4531 34.2188C32.5469 33.9062 33.5469 33.4844 34.4531 32.9531C34.9844 32.6406 35.5313 32.5075 36.0938 32.5537C36.6563 32.6 37.1406 32.8269 37.5469 33.2344C38.0781 33.7656 38.3206 34.375 38.2744 35.0625C38.2281 35.75 37.9231 36.2812 37.3594 36.6562C36.0156 37.5312 34.57 38.2031 33.0225 38.6719C31.475 39.1406 29.8425 39.375 28.125 39.375Z" fill="black"/>
</svg>
