<svg width="55" height="55" viewBox="0 0 55 55" fill="none" xmlns="http://www.w3.org/2000/svg">
<path d="M20.3389 48.3543L39.6462 29.1043C39.8753 28.8752 40.0373 28.6269 40.132 28.3595C40.2282 28.0922 40.2764 27.8057 40.2764 27.5002C40.2764 27.1946 40.2282 26.9081 40.132 26.6408C40.0373 26.3734 39.8753 26.1252 39.6462 25.896L20.3389 6.5887C19.8041 6.05398 19.1357 5.78662 18.3337 5.78662C17.5316 5.78662 16.8441 6.07308 16.2712 6.646C15.6982 7.21891 15.4118 7.88732 15.4118 8.6512C15.4118 9.41509 15.6982 10.0835 16.2712 10.6564L33.1149 27.5002L16.2712 44.3439C15.7364 44.8786 15.4691 45.5371 15.4691 46.3193C15.4691 47.1031 15.7555 47.7814 16.3284 48.3543C16.9014 48.9272 17.5698 49.2137 18.3337 49.2137C19.0975 49.2137 19.766 48.9272 20.3389 48.3543Z" fill="#999999"/>
</svg>
