<svg width="40" height="40" viewBox="0 0 40 40" fill="none" xmlns="http://www.w3.org/2000/svg">
<path d="M20.4648 37.8086C30.0435 37.8086 37.8086 30.0435 37.8086 20.4648C37.8086 10.8862 30.0435 3.12109 20.4648 3.12109C10.8862 3.12109 3.12109 10.8862 3.12109 20.4648C3.12109 30.0435 10.8862 37.8086 20.4648 37.8086Z" fill="#E9E7F7"/>
<path d="M16.0158 28.9091C15.5533 28.9091 15.1575 28.742 14.8284 28.4077C14.4988 28.0728 14.334 27.6704 14.334 27.2006V18.658C14.334 18.1882 14.4988 17.7858 14.8284 17.451C15.1575 17.1167 15.5533 16.9495 16.0158 16.9495H16.8567V15.241C16.8567 14.0593 17.2668 13.0518 18.087 12.2186C18.9066 11.386 19.898 10.9697 21.0613 10.9697C22.2245 10.9697 23.2162 11.386 24.0364 12.2186C24.856 13.0518 25.2658 14.0593 25.2658 15.241V16.9495H26.1067C26.5692 16.9495 26.9653 17.1167 27.2949 17.451C27.624 17.7858 27.7885 18.1882 27.7885 18.658V27.2006C27.7885 27.6704 27.624 28.0728 27.2949 28.4077C26.9653 28.742 26.5692 28.9091 26.1067 28.9091H16.0158ZM21.0613 24.6378C21.5238 24.6378 21.9198 24.4707 22.2495 24.1364C22.5785 23.8015 22.7431 23.3992 22.7431 22.9293C22.7431 22.4595 22.5785 22.0571 22.2495 21.7223C21.9198 21.388 21.5238 21.2208 21.0613 21.2208C20.5988 21.2208 20.203 21.388 19.8739 21.7223C19.5443 22.0571 19.3794 22.4595 19.3794 22.9293C19.3794 23.3992 19.5443 23.8015 19.8739 24.1364C20.203 24.4707 20.5988 24.6378 21.0613 24.6378ZM18.5385 16.9495H23.584V15.241C23.584 14.5291 23.3387 13.924 22.8482 13.4257C22.3577 12.9274 21.762 12.6782 21.0613 12.6782C20.3605 12.6782 19.7649 12.9274 19.2743 13.4257C18.7838 13.924 18.5385 14.5291 18.5385 15.241V16.9495Z" fill="#5A48C8"/>
</svg>
