<svg width="55" height="55" viewBox="0 0 55 55" fill="none" xmlns="http://www.w3.org/2000/svg">
<path d="M27.5 32.0835C26.8507 32.0835 26.306 31.8635 25.866 31.4235C25.426 30.9835 25.2068 30.4396 25.2083 29.7918C25.2083 29.1425 25.4283 28.5979 25.8683 28.1579C26.3083 27.7179 26.8522 27.4986 27.5 27.5002C28.1493 27.5002 28.694 27.7202 29.134 28.1602C29.574 28.6002 29.7932 29.1441 29.7917 29.7918C29.7917 30.4411 29.5717 30.9858 29.1317 31.4258C28.6917 31.8658 28.1478 32.085 27.5 32.0835ZM18.3333 32.0835C17.684 32.0835 17.1394 31.8635 16.6994 31.4235C16.2594 30.9835 16.0401 30.4396 16.0417 29.7918C16.0417 29.1425 16.2617 28.5979 16.7017 28.1579C17.1417 27.7179 17.6856 27.4986 18.3333 27.5002C18.9826 27.5002 19.5273 27.7202 19.9673 28.1602C20.4073 28.6002 20.6265 29.1441 20.625 29.7918C20.625 30.4411 20.405 30.9858 19.965 31.4258C19.525 31.8658 18.9811 32.085 18.3333 32.0835ZM36.6667 32.0835C36.0174 32.0835 35.4727 31.8635 35.0327 31.4235C34.5927 30.9835 34.3735 30.4396 34.375 29.7918C34.375 29.1425 34.595 28.5979 35.035 28.1579C35.475 27.7179 36.0189 27.4986 36.6667 27.5002C37.316 27.5002 37.8606 27.7202 38.3006 28.1602C38.7406 28.6002 38.9599 29.1441 38.9583 29.7918C38.9583 30.4411 38.7383 30.9858 38.2983 31.4258C37.8583 31.8658 37.3144 32.085 36.6667 32.0835ZM27.5 41.2502C26.8507 41.2502 26.306 41.0302 25.866 40.5902C25.426 40.1502 25.2068 39.6063 25.2083 38.9585C25.2083 38.3092 25.4283 37.7645 25.8683 37.3245C26.3083 36.8845 26.8522 36.6653 27.5 36.6668C28.1493 36.6668 28.694 36.8868 29.134 37.3268C29.574 37.7668 29.7932 38.3107 29.7917 38.9585C29.7917 39.6078 29.5717 40.1525 29.1317 40.5925C28.6917 41.0325 28.1478 41.2517 27.5 41.2502ZM18.3333 41.2502C17.684 41.2502 17.1394 41.0302 16.6994 40.5902C16.2594 40.1502 16.0401 39.6063 16.0417 38.9585C16.0417 38.3092 16.2617 37.7645 16.7017 37.3245C17.1417 36.8845 17.6856 36.6653 18.3333 36.6668C18.9826 36.6668 19.5273 36.8868 19.9673 37.3268C20.4073 37.7668 20.6265 38.3107 20.625 38.9585C20.625 39.6078 20.405 40.1525 19.965 40.5925C19.525 41.0325 18.9811 41.2517 18.3333 41.2502ZM36.6667 41.2502C36.0174 41.2502 35.4727 41.0302 35.0327 40.5902C34.5927 40.1502 34.3735 39.6063 34.375 38.9585C34.375 38.3092 34.595 37.7645 35.035 37.3245C35.475 36.8845 36.0189 36.6653 36.6667 36.6668C37.316 36.6668 37.8606 36.8868 38.3006 37.3268C38.7406 37.7668 38.9599 38.3107 38.9583 38.9585C38.9583 39.6078 38.7383 40.1525 38.2983 40.5925C37.8583 41.0325 37.3144 41.2517 36.6667 41.2502ZM11.4583 50.4168C10.1979 50.4168 9.11855 49.9677 8.22021 49.0693C7.32188 48.171 6.87348 47.0924 6.875 45.8335V13.7502C6.875 12.4897 7.32417 11.4104 8.2225 10.512C9.12084 9.6137 10.1994 9.1653 11.4583 9.16683H13.75V4.5835H18.3333V9.16683H36.6667V4.5835H41.25V9.16683H43.5417C44.8021 9.16683 45.8815 9.616 46.7798 10.5143C47.6781 11.4127 48.1265 12.4913 48.125 13.7502V45.8335C48.125 47.0939 47.6758 48.1733 46.7775 49.0716C45.8792 49.97 44.8006 50.4184 43.5417 50.4168H11.4583ZM11.4583 45.8335H43.5417V22.9168H11.4583V45.8335Z" fill="#412DBB"/>
</svg>
