<svg width="40" height="40" viewBox="0 0 40 40" fill="none" xmlns="http://www.w3.org/2000/svg">
<path d="M15.834 27.5002L27.5007 20.0002L15.834 12.5002V27.5002ZM20.0007 36.6668C17.6951 36.6668 15.5284 36.229 13.5007 35.3535C11.4729 34.4791 9.70898 33.2918 8.20898 31.7918C6.70898 30.2918 5.52176 28.5279 4.64732 26.5002C3.77176 24.4724 3.33398 22.3057 3.33398 20.0002C3.33398 17.6946 3.77176 15.5279 4.64732 13.5002C5.52176 11.4724 6.70898 9.7085 8.20898 8.2085C9.70898 6.7085 11.4729 5.52072 13.5007 4.64516C15.5284 3.77072 17.6951 3.3335 20.0007 3.3335C22.3062 3.3335 24.4729 3.77072 26.5007 4.64516C28.5284 5.52072 30.2923 6.7085 31.7923 8.2085C33.2923 9.7085 34.4795 11.4724 35.354 13.5002C36.2295 15.5279 36.6673 17.6946 36.6673 20.0002C36.6673 22.3057 36.2295 24.4724 35.354 26.5002C34.4795 28.5279 33.2923 30.2918 31.7923 31.7918C30.2923 33.2918 28.5284 34.4791 26.5007 35.3535C24.4729 36.229 22.3062 36.6668 20.0007 36.6668Z" fill="#5A48C8"/>
</svg>
