<svg width="50" height="40" viewBox="0 0 50 40" fill="none" xmlns="http://www.w3.org/2000/svg">
<path d="M24.9993 24.9582C24.7216 24.9582 24.4528 24.9165 24.1931 24.8332C23.932 24.7498 23.7146 24.6387 23.541 24.4998L13.9577 16.8332C13.5757 16.5276 13.3848 16.1387 13.3848 15.6665C13.3848 15.1943 13.5757 14.8054 13.9577 14.4998C14.3396 14.1943 14.8257 14.0415 15.416 14.0415C16.0063 14.0415 16.4924 14.1943 16.8743 14.4998L24.9993 20.9998L33.1243 14.4998C33.5063 14.1943 33.9924 14.0415 34.5827 14.0415C35.173 14.0415 35.6591 14.1943 36.041 14.4998C36.423 14.8054 36.6139 15.1943 36.6139 15.6665C36.6139 16.1387 36.423 16.5276 36.041 16.8332L26.4577 24.4998C26.2493 24.6665 26.0237 24.7843 25.7806 24.8532C25.5375 24.9232 25.2771 24.9582 24.9993 24.9582Z" fill="#828282"/>
</svg>
