<svg width="24" height="24" viewBox="0 0 24 24" fill="none" xmlns="http://www.w3.org/2000/svg">
<path d="M4.4 19.4253C4.06667 19.5586 3.75 19.5293 3.45 19.3373C3.15 19.146 3 18.867 3 18.5003V14.7753C3 14.542 3.06667 14.3336 3.2 14.1503C3.33333 13.967 3.51667 13.8503 3.75 13.8003L11 12.0003L3.75 10.2003C3.51667 10.1503 3.33333 10.0336 3.2 9.8503C3.06667 9.66697 3 9.45863 3 9.2253V5.5003C3 5.13363 3.15 4.8543 3.45 4.6623C3.75 4.47097 4.06667 4.44197 4.4 4.5753L19.8 11.0753C20.2167 11.2586 20.425 11.567 20.425 12.0003C20.425 12.4336 20.2167 12.742 19.8 12.9253L4.4 19.4253Z" fill="#9B9B9B"/>
</svg>
