<svg width="21" height="21" viewBox="0 0 21 21" fill="none" xmlns="http://www.w3.org/2000/svg">
<path d="M13.125 18.375C11.4042 18.375 9.87292 17.8865 8.53125 16.9094C7.18959 15.9323 6.24167 14.6708 5.6875 13.125H3.5C3.25209 13.125 3.04413 13.041 2.87613 12.873C2.70813 12.705 2.62442 12.4973 2.625 12.25C2.625 12.0021 2.709 11.7941 2.877 11.6261C3.045 11.4581 3.25267 11.3744 3.5 11.375H5.29375C5.26459 11.2146 5.25 11.0688 5.25 10.9375V10.0625C5.25 9.93125 5.26459 9.78542 5.29375 9.625H3.5C3.25209 9.625 3.04413 9.541 2.87613 9.373C2.70813 9.205 2.62442 8.99733 2.625 8.75C2.625 8.50208 2.709 8.29412 2.877 8.12612C3.045 7.95812 3.25267 7.87442 3.5 7.875H5.6875C6.24167 6.32917 7.18959 5.06771 8.53125 4.09063C9.87292 3.11354 11.4042 2.625 13.125 2.625C13.9271 2.625 14.6892 2.73438 15.4114 2.95312C16.1335 3.17188 16.8079 3.48542 17.4344 3.89375C17.6969 4.06875 17.8392 4.31667 17.8614 4.6375C17.8835 4.95833 17.7704 5.24271 17.5219 5.49063C17.3469 5.66563 17.1246 5.76771 16.8551 5.79688C16.5856 5.82604 16.3266 5.76771 16.0781 5.62188C15.6406 5.37396 15.174 5.17708 14.6781 5.03125C14.1823 4.88542 13.6646 4.8125 13.125 4.8125C12.0313 4.8125 11.0361 5.09337 10.1395 5.65512C9.24292 6.21687 8.561 6.95683 8.09375 7.875H12.25C12.4979 7.875 12.7059 7.959 12.8739 8.127C13.0419 8.295 13.1256 8.50267 13.125 8.75C13.125 8.99792 13.041 9.20588 12.873 9.37388C12.705 9.54188 12.4973 9.62558 12.25 9.625H7.525C7.49584 9.78542 7.47396 9.93125 7.45938 10.0625C7.44479 10.1937 7.4375 10.3396 7.4375 10.5C7.4375 10.6604 7.44479 10.8062 7.45938 10.9375C7.47396 11.0688 7.49584 11.2146 7.525 11.375H12.25C12.4979 11.375 12.7059 11.459 12.8739 11.627C13.0419 11.795 13.1256 12.0027 13.125 12.25C13.125 12.4979 13.041 12.7059 12.873 12.8739C12.705 13.0419 12.4973 13.1256 12.25 13.125H8.09375C8.56042 14.0437 9.24205 14.784 10.1386 15.3457C11.0352 15.9075 12.0307 16.1881 13.125 16.1875C13.65 16.1875 14.1677 16.1146 14.6781 15.9688C15.1885 15.8229 15.6552 15.626 16.0781 15.3781C16.326 15.2323 16.5813 15.1702 16.8438 15.1917C17.1063 15.2133 17.3323 15.3192 17.5219 15.5094C17.7698 15.7573 17.883 16.0417 17.8614 16.3625C17.8398 16.6833 17.6975 16.9312 17.4344 17.1062C16.8073 17.5146 16.1327 17.8281 15.4105 18.0469C14.6883 18.2656 13.9265 18.375 13.125 18.375Z" fill="black"/>
</svg>
