<svg width="22" height="22" viewBox="0 0 22 22" fill="none" xmlns="http://www.w3.org/2000/svg">
<path d="M16.4993 20.1668C16.9856 20.1668 17.4519 19.9737 17.7957 19.6299C18.1395 19.286 18.3327 18.8197 18.3327 18.3335V3.66683C18.3327 3.1806 18.1395 2.71428 17.7957 2.37047C17.4519 2.02665 16.9856 1.8335 16.4993 1.8335H10.9993V8.25016L8.70768 6.87516L6.41602 8.25016V1.8335H5.49935C5.01312 1.8335 4.5468 2.02665 4.20299 2.37047C3.85917 2.71428 3.66602 3.1806 3.66602 3.66683V18.3335C3.66602 18.8197 3.85917 19.286 4.20299 19.6299C4.5468 19.9737 5.01312 20.1668 5.49935 20.1668H16.4993Z" fill="white"/>
</svg>
