<svg width="36" height="36" viewBox="0 0 36 36" fill="none" xmlns="http://www.w3.org/2000/svg">
<path d="M14.4145 12.6426L12.585 23.3792H15.5111L17.3422 12.6426H14.4145Z" fill="white"/>
<path d="M10.1315 12.6546L7.26557 19.9767L6.96001 18.8711C6.39481 17.539 4.79026 15.6259 2.90649 14.4202L5.52706 23.3739L8.62327 23.3687L13.2315 12.6523L10.1315 12.6546Z" fill="white"/>
<path d="M5.84923 13.423C5.67914 12.769 5.18619 12.5741 4.57432 12.5508H0.0376301L0 12.7645C3.53046 13.621 5.86654 15.6846 6.83589 18.1659L5.84923 13.423Z" fill="white"/>
<path d="M23.2728 14.7017C24.2301 14.6867 24.924 14.8959 25.4629 15.1127L25.727 15.2368L26.1229 12.9098C25.5434 12.6923 24.635 12.459 23.5016 12.459C20.6101 12.459 18.572 13.9153 18.5562 16.0022C18.5374 17.5443 20.008 18.4053 21.1188 18.9193C22.259 19.4461 22.6414 19.7811 22.6361 20.2514C22.6271 20.9702 21.727 21.2998 20.8863 21.2998C19.7145 21.2998 19.0921 21.138 18.131 20.7376L17.754 20.566L17.3423 22.9691C18.0272 23.2694 19.2908 23.5275 20.6026 23.5411C23.6784 23.5411 25.6774 22.1021 25.6984 19.8721C25.7112 18.6522 24.9308 17.7212 23.2397 16.9573C22.2161 16.4591 21.59 16.1279 21.596 15.6252C21.596 15.1789 22.1273 14.7017 23.2728 14.7017Z" fill="white"/>
<path d="M33.6323 12.6553H31.3715C30.6693 12.6553 30.147 12.8464 29.8384 13.5464L25.4937 23.3859H28.5665C28.5665 23.3859 29.0678 22.0628 29.1814 21.7731C29.5178 21.7731 32.5034 21.7776 32.9286 21.7776C33.0159 22.1524 33.2853 23.3859 33.2853 23.3859H36L33.6323 12.6553ZM30.0236 19.5755C30.2644 18.9591 31.1893 16.5748 31.1893 16.5748C31.1735 16.6042 31.4279 15.9539 31.5792 15.5498L31.7764 16.4755C31.7764 16.4755 32.3371 19.0388 32.4545 19.5755H30.0236Z" fill="white"/>
</svg>
