<svg width="25" height="24" viewBox="0 0 25 24" fill="none" xmlns="http://www.w3.org/2000/svg">
<g clip-path="url(#clip0_682_45)">
<path d="M23.4 0H5.6C5.30826 0 5.02847 0.115893 4.82218 0.322183C4.61589 0.528473 4.5 0.808262 4.5 1.1V18.9C4.5 19.1917 4.61589 19.4715 4.82218 19.6778C5.02847 19.8841 5.30826 20 5.6 20H15.18V12.25H12.58V9.25H15.18V7C15.1261 6.47176 15.1885 5.93813 15.3627 5.43654C15.5369 4.93495 15.8188 4.47755 16.1885 4.09641C16.5582 3.71528 17.0068 3.41964 17.5028 3.23024C17.9989 3.04083 18.5304 2.96225 19.06 3C19.8383 2.99521 20.6163 3.03528 21.39 3.12V5.82H19.8C18.54 5.82 18.3 6.42 18.3 7.29V9.22H21.3L20.91 12.22H18.3V20H23.4C23.5445 20 23.6875 19.9715 23.821 19.9163C23.9544 19.861 24.0757 19.78 24.1778 19.6778C24.28 19.5757 24.361 19.4544 24.4163 19.321C24.4715 19.1875 24.5 19.0445 24.5 18.9V1.1C24.5 0.955546 24.4715 0.812506 24.4163 0.679048C24.361 0.54559 24.28 0.424327 24.1778 0.322183C24.0757 0.220038 23.9544 0.139013 23.821 0.0837326C23.6875 0.0284524 23.5445 0 23.4 0Z" fill="white"/>
</g>
<defs>
<clipPath id="clip0_682_45">
<rect width="24" height="24" fill="white" transform="translate(0.5)"/>
</clipPath>
</defs>
</svg>
