<svg width="144" height="21" viewBox="0 0 144 21" fill="none" xmlns="http://www.w3.org/2000/svg">
<path fill-rule="evenodd" clip-rule="evenodd" d="M14.375 12.9375C14.375 12.144 13.731 11.5 12.9375 11.5H6.77679C5.98328 11.5 5.33929 12.144 5.33929 12.9375V14.5804L5.35078 14.7011C5.69497 16.4277 7.28936 17.2574 9.91218 17.2574C12.5449 17.2574 14.1138 16.4179 14.3684 14.6707L14.375 14.582V12.9375ZM18.2768 6.57144H13.3433C13.4796 6.95749 13.5536 7.37149 13.5536 7.80356C13.5541 8.35498 13.4309 8.89944 13.1932 9.397C12.9556 9.89453 12.6094 10.3325 12.1801 10.6786H12.9375L13.0845 10.6835C13.5512 10.714 13.9969 10.8884 14.3603 11.1828C14.7237 11.4771 14.9868 11.877 15.1135 12.3272L15.2515 12.3288C17.8841 12.3288 19.4531 11.4893 19.7077 9.74213L19.7143 9.65344V8.00894C19.7143 7.21542 19.0703 6.57144 18.2768 6.57144ZM6.371 6.57144H1.4375C0.644001 6.57144 0 7.21542 0 8.00894V9.65179L0.0115013 9.77252C0.355679 11.4992 1.95007 12.3288 4.57289 12.3288L4.6 12.3297C4.86614 11.3768 5.74014 10.6786 6.77679 10.6786H7.53414L7.38957 10.5554C6.6355 9.87933 6.16071 8.89606 6.16071 7.80356C6.16071 7.37149 6.23464 6.95749 6.371 6.57144ZM11.8901 5.77063C11.3509 5.23148 10.6196 4.92856 9.85714 4.92856C9.09465 4.92856 8.36338 5.23148 7.82421 5.77063C7.28504 6.30981 6.98214 7.04108 6.98214 7.80356C6.98214 8.56607 7.28504 9.29733 7.82421 9.83652C8.36338 10.3757 9.09465 10.6786 9.85714 10.6786C10.6196 10.6786 11.3509 10.3757 11.8901 9.83652C12.4292 9.29733 12.7321 8.56607 12.7321 7.80356C12.7321 7.04108 12.4292 6.30981 11.8901 5.77063ZM17.2294 0.842072C16.6902 0.302887 15.9589 0 15.1964 0C14.4339 0 13.7027 0.302887 13.1635 0.842072C12.6243 1.38123 12.3214 2.11249 12.3214 2.875C12.3214 3.63751 12.6243 4.36877 13.1635 4.90793C13.7027 5.44711 14.4339 5.75 15.1964 5.75C15.9589 5.75 16.6902 5.44711 17.2294 4.90793C17.7685 4.36877 18.0714 3.63751 18.0714 2.875C18.0714 2.11249 17.7685 1.38123 17.2294 0.842072ZM6.55079 0.842072C6.01162 0.302887 5.28035 0 4.51786 0C3.75536 0 3.02409 0.302887 2.48492 0.842072C1.94576 1.38123 1.64286 2.11249 1.64286 2.875C1.64286 3.63751 1.94576 4.36877 2.48492 4.90793C3.02409 5.44711 3.75536 5.75 4.51786 5.75C5.28035 5.75 6.01162 5.44711 6.55079 4.90793C7.08995 4.36877 7.39286 3.63751 7.39286 2.875C7.39286 2.11249 7.08995 1.38123 6.55079 0.842072ZM45.4631 6.18466H47.679C47.5559 5.40341 47.3191 4.70975 46.9688 4.1037C46.6184 3.49289 46.1757 2.97681 45.6406 2.55539C45.1056 2.12927 44.5019 1.80728 43.8295 1.58948C43.1619 1.36694 42.4422 1.25568 41.6705 1.25568C40.4157 1.25568 39.2959 1.55634 38.3111 2.15768C37.3262 2.75427 36.5497 3.61127 35.9815 4.7287C35.4134 5.84137 35.1293 7.17426 35.1293 8.72726C35.1293 10.2756 35.411 11.6084 35.9744 12.7259C36.5426 13.8433 37.3191 14.7026 38.304 15.304C39.2888 15.9006 40.411 16.1989 41.6705 16.1989C42.4706 16.1989 43.2093 16.0805 43.8864 15.8438C44.5634 15.607 45.1648 15.2732 45.6903 14.8423C46.2206 14.4067 46.6539 13.8906 46.9901 13.294C47.331 12.6927 47.5606 12.0346 47.679 11.3196L45.4631 11.3125C45.3731 11.7765 45.2098 12.1884 44.973 12.5483C44.741 12.9034 44.4569 13.2041 44.1207 13.4503C43.7846 13.6965 43.4081 13.8835 42.9915 14.0114C42.5795 14.1345 42.1439 14.196 41.6847 14.196C40.8561 14.196 40.1103 13.9877 39.4474 13.571C38.7846 13.1544 38.2614 12.5388 37.8778 11.7244C37.4991 10.91 37.3097 9.91098 37.3097 8.72726C37.3097 7.55304 37.4991 6.55872 37.8778 5.74432C38.2614 4.92993 38.7822 4.31201 39.4403 3.89062C40.1032 3.46924 40.8537 3.25851 41.6918 3.25851C42.1558 3.25851 42.5938 3.32245 43.0057 3.45029C43.4223 3.57812 43.7988 3.76752 44.1349 4.01846C44.4711 4.26941 44.7552 4.5748 44.9872 4.93466C45.2192 5.29449 45.3778 5.71118 45.4631 6.18466ZM52.0522 15.5171C52.8145 15.9858 53.707 16.2202 54.7298 16.2202C55.7525 16.2202 56.645 15.9858 57.4073 15.5171C58.1696 15.0483 58.7615 14.3925 59.1829 13.5497C59.6043 12.7069 59.815 11.7221 59.815 10.5952C59.815 9.46353 59.6043 8.47397 59.1829 7.62643C58.7615 6.77887 58.1696 6.12073 57.4073 5.65198C56.645 5.18323 55.7525 4.94885 54.7298 4.94885C53.707 4.94885 52.8145 5.18323 52.0522 5.65198C51.2899 6.12073 50.698 6.77887 50.2766 7.62643C49.8552 8.47397 49.6445 9.46353 49.6445 10.5952C49.6445 11.7221 49.8552 12.7069 50.2766 13.5497C50.698 14.3925 51.2899 15.0483 52.0522 15.5171ZM56.3846 13.9119C55.949 14.2623 55.3997 14.4375 54.7369 14.4375C54.0692 14.4375 53.5153 14.2623 53.0749 13.9119C52.6393 13.5616 52.315 13.0952 52.1019 12.5128C51.8936 11.9304 51.7894 11.2888 51.7894 10.5881C51.7894 9.89206 51.8936 9.25284 52.1019 8.67044C52.315 8.08334 52.6393 7.61221 53.0749 7.25711C53.5153 6.90198 54.0692 6.72443 54.7369 6.72443C55.3997 6.72443 55.949 6.90198 56.3846 7.25711C56.8202 7.61221 57.1422 8.08334 57.3505 8.67044C57.5636 9.25284 57.6701 9.89206 57.6701 10.5881C57.6701 11.2888 57.5636 11.9304 57.3505 12.5128C57.1422 13.0952 56.8202 13.5616 56.3846 13.9119ZM62.1854 5.09091V16H64.309V9.27414C64.309 8.78174 64.4108 8.34848 64.6143 7.97443C64.8227 7.60037 65.0949 7.30917 65.4311 7.10086C65.772 6.88779 66.1437 6.78125 66.5462 6.78125C67.138 6.78125 67.6186 6.96118 67.9879 7.32101C68.3572 7.68088 68.5419 8.15674 68.5419 8.74857V16H70.6584V9.04688C70.6584 8.384 70.8501 7.84186 71.2337 7.42044C71.6172 6.99432 72.1546 6.78125 72.8459 6.78125C73.4046 6.78125 73.8852 6.94696 74.2876 7.27841C74.6901 7.60986 74.8913 8.1449 74.8913 8.88351V16H77.0149V8.68466C77.0149 7.43466 76.7001 6.49951 76.0703 5.87927C75.4453 5.259 74.638 4.94885 73.6484 4.94885C72.8624 4.94885 72.1854 5.12405 71.6172 5.47443C71.049 5.82007 70.6347 6.28409 70.3743 6.86649H70.2607C70.0239 6.2699 69.657 5.80115 69.1598 5.46024C68.6674 5.11932 68.0566 4.94885 67.3274 4.94885C66.6077 4.94885 65.9898 5.11932 65.4737 5.46024C64.9576 5.79639 64.5859 6.26514 64.3587 6.86649H64.2237V5.09091H62.1854ZM79.8612 5.09091V16H81.9847V9.27414C81.9847 8.78174 82.0865 8.34848 82.2901 7.97443C82.4985 7.60037 82.7707 7.30917 83.1069 7.10086C83.4478 6.88779 83.8195 6.78125 84.2219 6.78125C84.8138 6.78125 85.2944 6.96118 85.6637 7.32101C86.033 7.68088 86.2177 8.15674 86.2177 8.74857V16H88.3342V9.04688C88.3342 8.384 88.5259 7.84186 88.9094 7.42044C89.293 6.99432 89.8304 6.78125 90.5217 6.78125C91.0804 6.78125 91.561 6.94696 91.9634 7.27841C92.3659 7.60986 92.5671 8.1449 92.5671 8.88351V16H94.6907V8.68466C94.6907 7.43466 94.3758 6.49951 93.7461 5.87927C93.1211 5.259 92.3138 4.94885 91.3242 4.94885C90.5382 4.94885 89.8612 5.12405 89.293 5.47443C88.7248 5.82007 88.3105 6.28409 88.0501 6.86649H87.9364C87.6997 6.2699 87.3327 5.80115 86.8356 5.46024C86.3432 5.11932 85.7324 4.94885 85.0032 4.94885C84.2835 4.94885 83.6656 5.11932 83.1495 5.46024C82.6334 5.79639 82.2617 6.26514 82.0344 6.86649H81.8995V5.09091H79.8612ZM104.447 5.09091V11.4759C104.452 12.0961 104.322 12.6075 104.057 13.0099C103.796 13.4124 103.467 13.7131 103.07 13.9119C102.677 14.1108 102.281 14.2102 101.884 14.2102C101.225 14.2102 100.69 13.9901 100.278 13.5497C99.8665 13.1094 99.6605 12.5175 99.6605 11.7741V5.09091H97.5369V12.0298C97.5369 12.9294 97.6884 13.6847 97.9915 14.2954C98.2992 14.9062 98.7206 15.3679 99.2557 15.6804C99.7955 15.9882 100.416 16.1421 101.116 16.1421C101.936 16.1421 102.62 15.9503 103.169 15.5668C103.723 15.1785 104.125 14.6932 104.376 14.1108H104.49V16H106.578V5.09091H104.447ZM111.555 16V9.52274C111.555 8.94507 111.664 8.45264 111.882 8.04544C112.104 7.63351 112.405 7.32101 112.784 7.10794C113.167 6.8949 113.605 6.78836 114.098 6.78836C114.817 6.78836 115.383 7.01324 115.795 7.46307C116.207 7.90814 116.413 8.52603 116.413 9.31677V16H118.537V9.06107C118.537 8.16147 118.383 7.40625 118.075 6.79544C117.767 6.18466 117.334 5.72537 116.775 5.4176C116.217 5.1051 115.565 4.94885 114.822 4.94885C114.003 4.94885 113.324 5.12405 112.784 5.47443C112.249 5.8248 111.856 6.28882 111.605 6.86649H111.47V5.09091H109.431V16H111.555ZM121.385 5.09091V16H123.508V5.09091H121.385ZM121.505 3.03836C121.77 3.28458 122.088 3.40768 122.457 3.40768C122.826 3.40768 123.141 3.28458 123.402 3.03836C123.667 2.78741 123.799 2.48911 123.799 2.14346C123.799 1.79309 123.667 1.49478 123.402 1.24857C123.141 0.99762 122.826 0.872162 122.457 0.872162C122.088 0.872162 121.77 0.99762 121.505 1.24857C121.245 1.49478 121.115 1.79309 121.115 2.14346C121.115 2.48911 121.245 2.78741 121.505 3.03836ZM131.457 6.79544V5.09091H129.22V2.47726H127.097V5.09091H125.499V6.79544H127.097V13.2372C127.097 13.8954 127.246 14.4422 127.544 14.8778C127.842 15.3134 128.233 15.6354 128.716 15.8438C129.199 16.0521 129.72 16.1515 130.278 16.1421C130.619 16.1373 130.903 16.1089 131.131 16.0568C131.358 16.0095 131.533 15.9621 131.656 15.9148L131.273 14.1605C131.202 14.1747 131.102 14.1937 130.974 14.2173C130.847 14.241 130.697 14.2528 130.527 14.2528C130.295 14.2528 130.08 14.2173 129.881 14.1463C129.687 14.0706 129.528 13.9309 129.405 13.7273C129.282 13.519 129.22 13.2088 129.22 12.7969V6.79544H131.457ZM134.282 20.0128C134.543 20.0649 134.832 20.0909 135.149 20.0909C135.736 20.0909 136.252 19.9915 136.697 19.7926C137.142 19.5938 137.526 19.2954 137.848 18.8977C138.17 18.5047 138.435 18.0241 138.643 17.456L143.139 5.09091H140.859L138.096 13.5568H137.983L135.22 5.09091H132.947L136.939 16.1421L136.676 16.8665C136.496 17.3494 136.288 17.6974 136.051 17.9105C135.819 18.1236 135.551 18.2372 135.248 18.2514C134.945 18.2656 134.6 18.2206 134.211 18.1165L133.7 19.8565C133.828 19.9134 134.022 19.9654 134.282 20.0128Z" fill="white"/>
</svg>
