<svg width="22" height="22" viewBox="0 0 22 22" fill="none" xmlns="http://www.w3.org/2000/svg">
<g clip-path="url(#clip0_3057_751)">
<path d="M20.7488 17.5863C20.9235 17.4502 21.0627 17.274 21.1547 17.0725C21.2467 16.8711 21.2887 16.6504 21.2771 16.4293C21.2655 16.2081 21.2006 15.9931 21.088 15.8024C20.9755 15.6117 20.8185 15.451 20.6305 15.334L20.625 7.32875L19.25 8.25V15.3312C19.0642 15.4482 18.909 15.6079 18.7975 15.7971C18.6859 15.9862 18.6213 16.1993 18.6089 16.4186C18.5965 16.6378 18.6368 16.8568 18.7263 17.0573C18.8158 17.2578 18.952 17.434 19.1235 17.5711L18.6038 18.2614C18.1415 18.8494 17.8854 19.5732 17.875 20.3211V22.0014H18.9956C19.2648 22.0014 19.5263 21.9116 19.7388 21.7462C19.9512 21.5808 20.1024 21.3493 20.1685 21.0884L20.6236 19.2514V22.0014H21.9986V20.3376C21.9881 19.5859 21.73 18.8585 21.2644 18.2682L20.7488 17.5863ZM11 0L0 5.5L11 12.375L22 5.5L11 0Z" fill="white"/>
<path d="M11 13.7501L4.125 9.17139V11.5226C4.125 12.7739 8.1675 16.5001 11 16.5001C13.8325 16.5001 17.875 12.7739 17.875 11.5226V9.17139L11 13.7501Z" fill="white"/>
</g>
<defs>
<clipPath id="clip0_3057_751">
<rect width="22" height="22" fill="white"/>
</clipPath>
</defs>
</svg>
