<svg width="52" height="52" viewBox="0 0 52 52" fill="none" xmlns="http://www.w3.org/2000/svg">
<path d="M26.357 46.8155C31.7827 46.8155 36.9862 44.6602 40.8227 40.8237C44.6592 36.9871 46.8145 31.7837 46.8145 26.358C46.8145 20.9324 44.6592 15.7289 40.8227 11.8924C36.9862 8.05585 31.7827 5.90051 26.357 5.90051C20.9314 5.90051 15.7279 8.05585 11.8914 11.8924C8.05487 15.7289 5.89953 20.9324 5.89953 26.358C5.89953 31.7837 8.05487 36.9871 11.8914 40.8237C15.7279 44.6602 20.9314 46.8155 26.357 46.8155ZM26.357 0.786133C29.7152 0.786133 33.0405 1.44757 36.143 2.73268C39.2455 4.01778 42.0645 5.9014 44.4391 8.27596C46.8137 10.6505 48.6973 13.4696 49.9824 16.5721C51.2675 19.6746 51.9289 22.9999 51.9289 26.358C51.9289 33.1401 49.2348 39.6444 44.4391 44.4401C39.6434 49.2357 33.1391 51.9299 26.357 51.9299C12.2158 51.9299 0.785156 40.4226 0.785156 26.358C0.785156 19.5759 3.47933 13.0716 8.27499 8.27596C13.0706 3.48031 19.575 0.786133 26.357 0.786133ZM27.6356 13.5721V26.9973L39.143 33.825L37.2251 36.9703L23.7999 28.9152V13.5721H27.6356Z" fill="white"/>
</svg>
