<svg width="18" height="18" viewBox="0 0 18 18" fill="none" xmlns="http://www.w3.org/2000/svg">
<path d="M12 17.999H6V9.59904C6 9.43991 6.06321 9.2873 6.17574 9.17478C6.28826 9.06225 6.44087 8.99904 6.6 8.99904H11.4C11.5591 8.99904 11.7117 9.06225 11.8243 9.17478C11.9368 9.2873 12 9.43991 12 9.59904V17.999ZM17.4 17.999H12V15.099C12 14.9399 12.0632 14.7873 12.1757 14.6748C12.2883 14.5623 12.4409 14.499 12.6 14.499H17.4C17.5591 14.499 17.7117 14.5623 17.8243 14.6748C17.9368 14.7873 18 14.9399 18 15.099V17.399C18 17.5582 17.9368 17.7108 17.8243 17.8233C17.7117 17.9358 17.5591 17.999 17.4 17.999ZM6 17.999V13.099C6 12.9399 5.93679 12.7873 5.82426 12.6748C5.71174 12.5623 5.55913 12.499 5.4 12.499H0.6C0.44087 12.499 0.288258 12.5623 0.175736 12.6748C0.0632141 12.7873 0 12.9399 0 13.099V17.399C0 17.5582 0.0632141 17.7108 0.175736 17.8233C0.288258 17.9358 0.44087 17.999 0.6 17.999H6ZM7.806 2.11204L8.715 0.18504C8.73954 0.129952 8.77952 0.0831572 8.8301 0.0503173C8.88068 0.0174774 8.93969 0 9 0C9.06031 0 9.11932 0.0174774 9.1699 0.0503173C9.22048 0.0831572 9.26046 0.129952 9.285 0.18504L10.195 2.11204L12.227 2.42304C12.488 2.46304 12.592 2.79904 12.403 2.99104L10.933 4.49104L11.28 6.60904C11.324 6.88104 11.052 7.08904 10.818 6.96004L9 5.96004L7.182 6.96004C6.949 7.08804 6.676 6.88104 6.72 6.60904L7.067 4.49104L5.597 2.99104C5.407 2.79904 5.512 2.46304 5.772 2.42304L7.806 2.11304V2.11204Z" fill="white"/>
</svg>
