<svg width="43" height="43" viewBox="0 0 43 43" fill="none" xmlns="http://www.w3.org/2000/svg">
<path d="M9.85193 21.3578H14.5875V25.6197H9.85193V21.3578ZM43.0007 8.57181V38.4057C43.0007 40.7711 40.8934 42.6677 38.2651 42.6677H5.11639C2.48817 42.6677 0.380859 40.7498 0.380859 38.4057V8.57181C0.380859 6.22772 2.51185 4.30983 5.11639 4.30983H7.48416V0.0478516H12.2197V4.30983H31.1618V0.0478516H35.8974V4.30983H38.2651C40.8934 4.30983 43.0007 6.22772 43.0007 8.57181ZM5.11639 12.8338H38.2651V8.57181H5.11639V12.8338ZM38.2651 38.4057V17.0958H5.11639V38.4057H38.2651ZM28.7941 25.6197V21.3578H33.5296V25.6197H28.7941ZM19.323 25.6197V21.3578H24.0585V25.6197H19.323ZM9.85193 29.8817H14.5875V34.1437H9.85193V29.8817ZM28.7941 34.1437V29.8817H33.5296V34.1437H28.7941ZM19.323 34.1437V29.8817H24.0585V34.1437H19.323Z" fill="white"/>
</svg>
