<svg width="40" height="43" viewBox="0 0 40 43" fill="none" xmlns="http://www.w3.org/2000/svg">
<path d="M34.4147 14.2545C35.6863 14.2545 36.9059 14.6821 37.805 15.4433C38.7042 16.2045 39.2094 17.237 39.2094 18.3135V38.6086C39.2094 39.6852 38.7042 40.7176 37.805 41.4788C36.9059 42.24 35.6863 42.6677 34.4147 42.6677H5.64629C2.98522 42.6677 0.851562 40.8411 0.851562 38.6086V18.3135C0.851562 17.237 1.35672 16.2045 2.25591 15.4433C3.15509 14.6821 4.37465 14.2545 5.64629 14.2545H27.2226V10.1954C27.2226 8.58064 26.4648 7.032 25.1161 5.89017C23.7673 4.74835 21.9379 4.10688 20.0305 4.10688C18.123 4.10688 16.2937 4.74835 14.9449 5.89017C13.5961 7.032 12.8384 8.58064 12.8384 10.1954H8.04365C8.04365 7.50412 9.30655 4.92305 11.5545 3.02001C13.8025 1.11697 16.8514 0.0478516 20.0305 0.0478516C21.6046 0.0478516 23.1633 0.310326 24.6176 0.82029C26.0719 1.33025 27.3934 2.07772 28.5064 3.02001C29.6195 3.9623 30.5025 5.08096 31.1049 6.31212C31.7072 7.54328 32.0173 8.86283 32.0173 10.1954V14.2545H34.4147ZM20.0305 32.5201C21.3021 32.5201 22.5217 32.0924 23.4209 31.3312C24.32 30.57 24.8252 29.5376 24.8252 28.4611C24.8252 27.3845 24.32 26.3521 23.4209 25.5909C22.5217 24.8297 21.3021 24.402 20.0305 24.402C18.7588 24.402 17.5393 24.8297 16.6401 25.5909C15.7409 26.3521 15.2357 27.3845 15.2357 28.4611C15.2357 29.5376 15.7409 30.57 16.6401 31.3312C17.5393 32.0924 18.7588 32.5201 20.0305 32.5201Z" fill="white"/>
</svg>
