<svg width="21" height="26" viewBox="0 0 21 26" fill="none" xmlns="http://www.w3.org/2000/svg">
<path d="M10.4996 19.5227C11.1386 19.5227 11.7513 19.2689 12.2031 18.8171C12.6549 18.3653 12.9087 17.7526 12.9087 17.1136C12.9087 15.7766 11.8246 14.7045 10.4996 14.7045C9.86071 14.7045 9.24795 14.9584 8.79616 15.4102C8.34437 15.8619 8.09055 16.4747 8.09055 17.1136C8.09055 17.7526 8.34437 18.3653 8.79616 18.8171C9.24795 19.2689 9.86071 19.5227 10.4996 19.5227ZM17.7269 8.68182C18.3658 8.68182 18.9786 8.93563 19.4304 9.38743C19.8822 9.83922 20.136 10.452 20.136 11.0909V23.1364C20.136 23.7753 19.8822 24.3881 19.4304 24.8398C18.9786 25.2916 18.3658 25.5455 17.7269 25.5455H3.27237C2.63344 25.5455 2.02068 25.2916 1.56889 24.8398C1.1171 24.3881 0.863281 23.7753 0.863281 23.1364V11.0909C0.863281 9.75386 1.94737 8.68182 3.27237 8.68182H4.47692V6.27273C4.47692 4.6754 5.11145 3.1435 6.24093 2.01402C7.37041 0.884535 8.90232 0.25 10.4996 0.25C11.2906 0.25 12.0737 0.405782 12.8044 0.708453C13.5352 1.01112 14.1991 1.45475 14.7584 2.01402C15.3176 2.57328 15.7612 3.23722 16.0639 3.96793C16.3666 4.69864 16.5224 5.48181 16.5224 6.27273V8.68182H17.7269ZM10.4996 2.65909C9.54125 2.65909 8.62211 3.03981 7.94442 3.7175C7.26673 4.39519 6.88601 5.31433 6.88601 6.27273V8.68182H14.1133V6.27273C14.1133 5.31433 13.7326 4.39519 13.0549 3.7175C12.3772 3.03981 11.458 2.65909 10.4996 2.65909Z" fill="#8880C6"/>
</svg>
