<svg width="38" height="50" viewBox="0 0 38 50" fill="none" xmlns="http://www.w3.org/2000/svg">
<path d="M4.75 49.875C3.44375 49.875 2.32513 49.4095 1.39413 48.4785C0.463129 47.5475 -0.0015793 46.4297 4.03226e-06 45.125V21.375C4.03226e-06 20.0688 0.465504 18.9501 1.3965 18.0191C2.3275 17.0881 3.44534 16.6234 4.75 16.625H7.125V11.875C7.125 8.58958 8.28321 5.78867 10.5996 3.47225C12.916 1.15583 15.7162 -0.00158171 19 1.62227e-06C22.2854 1.62227e-06 25.0863 1.15821 27.4028 3.47463C29.7192 5.79104 30.8766 8.59117 30.875 11.875V16.625H33.25C34.5563 16.625 35.6749 17.0905 36.6059 18.0215C37.5369 18.9525 38.0016 20.0703 38 21.375V45.125C38 46.4313 37.5345 47.5499 36.6035 48.4809C35.6725 49.4119 34.5547 49.8766 33.25 49.875H4.75ZM19 38C20.3063 38 21.4249 37.5345 22.3559 36.6035C23.2869 35.6725 23.7516 34.5547 23.75 33.25C23.75 31.9438 23.2845 30.8251 22.3535 29.8941C21.4225 28.9631 20.3047 28.4984 19 28.5C17.6938 28.5 16.5751 28.9655 15.6441 29.8965C14.7131 30.8275 14.2484 31.9453 14.25 33.25C14.25 34.5563 14.7155 35.6749 15.6465 36.6059C16.5775 37.5369 17.6953 38.0016 19 38ZM11.875 16.625H26.125V11.875C26.125 9.89583 25.4323 8.21354 24.0469 6.82813C22.6615 5.44271 20.9792 4.75 19 4.75C17.0208 4.75 15.3385 5.44271 13.9531 6.82813C12.5677 8.21354 11.875 9.89583 11.875 11.875V16.625Z" fill="#6154AA"/>
</svg>
