<svg width="20" height="18" viewBox="0 0 20 18" fill="none" xmlns="http://www.w3.org/2000/svg">
<path d="M12.9375 11.5C13.731 11.5 14.375 12.144 14.375 12.9375V14.582L14.3684 14.6707C14.1138 16.4179 12.5449 17.2574 9.91218 17.2574C7.28936 17.2574 5.69496 16.4277 5.35079 14.7011L5.33929 14.5804V12.9375C5.33929 12.144 5.98329 11.5 6.77679 11.5H12.9375ZM13.3433 6.57143H18.2768C19.0703 6.57143 19.7143 7.21543 19.7143 8.00893V9.65343L19.7077 9.74214C19.4531 11.4893 17.8841 12.3288 15.2515 12.3288L15.1135 12.3272C14.9868 11.877 14.7237 11.4772 14.3603 11.1828C13.9969 10.8884 13.5512 10.714 13.0845 10.6835L12.9375 10.6786H12.1801C12.6094 10.3325 12.9556 9.89453 13.1932 9.39699C13.4309 8.89946 13.5541 8.35497 13.5536 7.80357C13.5536 7.3715 13.4796 6.9575 13.3433 6.57143ZM1.4375 6.57143H6.371C6.23464 6.9575 6.16071 7.3715 6.16071 7.80357C6.16071 8.89607 6.6355 9.87932 7.38957 10.5554L7.53414 10.6786H6.77679C5.74014 10.6786 4.86614 11.3768 4.6 12.3296L4.57289 12.3288C1.95007 12.3288 0.355678 11.4992 0.0114999 9.77254L0 9.65178V8.00893C0 7.21543 0.644 6.57143 1.4375 6.57143ZM9.85714 4.92857C10.6196 4.92857 11.3509 5.23147 11.8901 5.77064C12.4292 6.30981 12.7321 7.04107 12.7321 7.80357C12.7321 8.56607 12.4292 9.29734 11.8901 9.8365C11.3509 10.3757 10.6196 10.6786 9.85714 10.6786C9.09465 10.6786 8.36338 10.3757 7.82421 9.8365C7.28504 9.29734 6.98214 8.56607 6.98214 7.80357C6.98214 7.04107 7.28504 6.30981 7.82421 5.77064C8.36338 5.23147 9.09465 4.92857 9.85714 4.92857ZM15.1964 0C15.9589 0 16.6902 0.302901 17.2294 0.842068C17.7685 1.38124 18.0714 2.1125 18.0714 2.875C18.0714 3.6375 17.7685 4.36876 17.2294 4.90793C16.6902 5.4471 15.9589 5.75 15.1964 5.75C14.4339 5.75 13.7027 5.4471 13.1635 4.90793C12.6243 4.36876 12.3214 3.6375 12.3214 2.875C12.3214 2.1125 12.6243 1.38124 13.1635 0.842068C13.7027 0.302901 14.4339 0 15.1964 0ZM4.51786 0C5.28035 0 6.01162 0.302901 6.55079 0.842068C7.08996 1.38124 7.39286 2.1125 7.39286 2.875C7.39286 3.6375 7.08996 4.36876 6.55079 4.90793C6.01162 5.4471 5.28035 5.75 4.51786 5.75C3.75536 5.75 3.02409 5.4471 2.48493 4.90793C1.94576 4.36876 1.64286 3.6375 1.64286 2.875C1.64286 2.1125 1.94576 1.38124 2.48493 0.842068C3.02409 0.302901 3.75536 0 4.51786 0Z" fill="white"/>
</svg>
