<svg width="19" height="19" viewBox="0 0 19 19" fill="none" xmlns="http://www.w3.org/2000/svg">
<path d="M9.5 18C14.1943 18 18 14.1943 18 9.5C18 4.80568 14.1943 1 9.5 1C4.80568 1 1 4.80568 1 9.5C1 14.1943 4.80568 18 9.5 18ZM9.5 10.2727C9.70494 10.2727 9.90149 10.1913 10.0464 10.0464C10.1913 9.90149 10.2727 9.70494 10.2727 9.5C10.2727 9.29506 10.1913 9.09851 10.0464 8.9536C9.90149 8.80868 9.70494 8.72727 9.5 8.72727C9.29506 8.72727 9.09851 8.80868 8.9536 8.9536C8.80868 9.09851 8.72727 9.29506 8.72727 9.5C8.72727 9.70494 8.80868 9.90149 8.9536 10.0464C9.09851 10.1913 9.29506 10.2727 9.5 10.2727ZM9.5 11.8182C10.1148 11.8182 10.7045 11.5739 11.1392 11.1392C11.5739 10.7045 11.8182 10.1148 11.8182 9.5C11.8182 8.88518 11.5739 8.29554 11.1392 7.8608C10.7045 7.42605 10.1148 7.18182 9.5 7.18182C8.88518 7.18182 8.29554 7.42605 7.8608 7.8608C7.42605 8.29554 7.18182 8.88518 7.18182 9.5C7.18182 10.1148 7.42605 10.7045 7.8608 11.1392C8.29554 11.5739 8.88518 11.8182 9.5 11.8182ZM9.5 13.3636C10.5247 13.3636 11.5074 12.9566 12.232 12.232C12.9566 11.5074 13.3636 10.5247 13.3636 9.5C13.3636 8.4753 12.9566 7.49257 12.232 6.768C11.5074 6.04342 10.5247 5.63636 9.5 5.63636C8.4753 5.63636 7.49257 6.04342 6.768 6.768C6.04342 7.49257 5.63636 8.4753 5.63636 9.5C5.63636 10.5247 6.04342 11.5074 6.768 12.232C7.49257 12.9566 8.4753 13.3636 9.5 13.3636Z" stroke="#5A48C8" stroke-width="2"/>
</svg>
