<svg width="34" height="34" viewBox="0 0 34 34" fill="none" xmlns="http://www.w3.org/2000/svg">
<path d="M12.834 24.5002L24.5007 17.0002L12.834 9.50016V24.5002ZM17.0007 33.6668C14.6951 33.6668 12.5284 33.229 10.5007 32.3535C8.47287 31.4791 6.70898 30.2918 5.20898 28.7918C3.70898 27.2918 2.52176 25.5279 1.64732 23.5002C0.771762 21.4724 0.333984 19.3057 0.333984 17.0002C0.333984 14.6946 0.771762 12.5279 1.64732 10.5002C2.52176 8.47239 3.70898 6.7085 5.20898 5.2085C6.70898 3.7085 8.47287 2.52072 10.5007 1.64516C12.5284 0.770718 14.6951 0.333496 17.0007 0.333496C19.3062 0.333496 21.4729 0.770718 23.5007 1.64516C25.5284 2.52072 27.2923 3.7085 28.7923 5.2085C30.2923 6.7085 31.4795 8.47239 32.354 10.5002C33.2295 12.5279 33.6673 14.6946 33.6673 17.0002C33.6673 19.3057 33.2295 21.4724 32.354 23.5002C31.4795 25.5279 30.2923 27.2918 28.7923 28.7918C27.2923 30.2918 25.5284 31.4791 23.5007 32.3535C21.4729 33.229 19.3062 33.6668 17.0007 33.6668Z" fill="#5A48C8"/>
</svg>
