<svg width="30" height="13" viewBox="0 0 30 13" fill="none" xmlns="http://www.w3.org/2000/svg">
<path d="M24.7931 5.63702H22.3138V5.23438H19.008V7.65024H22.3138V7.2476H24.7931V8.05288C24.7931 8.26646 24.6189 8.47129 24.309 8.62231C23.999 8.77333 23.5786 8.85817 23.1402 8.85817H18.1816C17.7432 8.85817 17.3228 8.77333 17.0128 8.62231C16.7029 8.47129 16.5287 8.26646 16.5287 8.05288V4.83173C16.5287 4.61816 16.7029 4.41333 17.0128 4.26231C17.3228 4.11129 17.7432 4.02644 18.1816 4.02644H23.1402C23.5786 4.02644 23.999 4.11129 24.309 4.26231C24.6189 4.41333 24.7931 4.61816 24.7931 4.83173M13.223 5.63702H10.7437V5.23438H7.43792V7.65024H10.7437V7.2476H13.223V8.05288C13.223 8.26646 13.0488 8.47129 12.7389 8.62231C12.4289 8.77333 12.0085 8.85817 11.5701 8.85817H6.61149C6.17312 8.85817 5.7527 8.77333 5.44273 8.62231C5.13276 8.47129 4.95861 8.26646 4.95861 8.05288V4.83173C4.95861 4.61816 5.13276 4.41333 5.44273 4.26231C5.7527 4.11129 6.17312 4.02644 6.61149 4.02644H11.5701C12.0085 4.02644 12.4289 4.11129 12.7389 4.26231C13.0488 4.41333 13.223 4.61816 13.223 4.83173M26.4459 0H3.30574C1.47106 0 0 0.716707 0 1.61058V11.274C0 11.7012 0.348283 12.1108 0.96823 12.4129C1.58818 12.7149 2.42901 12.8846 3.30574 12.8846H26.4459C27.3227 12.8846 28.1635 12.7149 28.7835 12.4129C29.4034 12.1108 29.7517 11.7012 29.7517 11.274V1.61058C29.7517 0.716707 28.2641 0 26.4459 0Z" fill="white"/>
</svg>
